<svg xmlns="http://www.w3.org/2000/svg" xmlns:xlink="http://www.w3.org/1999/xlink" contentStyleType="text/css" data-diagram-type="DESCRIPTION" height="605.7843px" preserveAspectRatio="none" style="width:729px;height:605px;background:#FFFFFF;" version="1.1" viewBox="0 0 729 605" width="729.5359px" zoomAndPan="magnify"><?plantuml 1.2026.3beta6?><defs/><g><g class="title" data-source-line="24"><text fill="#000000" font-family="Arial" font-size="12.974" font-weight="700" lengthAdjust="spacing" textLength="359.3686" x="181.905" y="22.0227">Multi-Elevator CTDE System &#8212; Use Case Diagram</text></g><!--cluster Multi-Elevator Scheduling System--><g class="cluster" data-qualified-name="Multi-Elevator Scheduling System" data-source-line="32" id="ent0005"><rect fill="#F9F9FB" height="431.1547" rx="2.495" ry="2.495" style="stroke:#2E75B6;stroke-width:1.497;" width="526.9425" x="169.6595" y="161.1095"/><text fill="#000000" font-family="Arial" font-size="10.978" font-weight="700" lengthAdjust="spacing" textLength="209.4659" x="328.3978" y="173.2955">Multi-Elevator Scheduling System</text></g><!--entity UC1--><g class="entity" data-qualified-name="Multi-Elevator Scheduling System.UC1" data-source-line="33" id="ent0006"><ellipse cx="227.5456" cy="211.4286" fill="#EAF0FB" rx="41.948" ry="19.3812" style="stroke:#2E4057;stroke-width:1.1976;"/><text fill="#000000" font-family="Arial" font-size="9.98" lengthAdjust="spacing" textLength="54.6608" x="200.2152" y="207.876">Press Floor</text><text fill="#000000" font-family="Arial" font-size="9.98" lengthAdjust="spacing" textLength="55.231" x="199.9301" y="219.4933">Call Button</text></g><!--entity UC2--><g class="entity" data-qualified-name="Multi-Elevator Scheduling System.UC2" data-source-line="34" id="ent0007"><ellipse cx="240.5215" cy="558.159" fill="#EAF0FB" rx="50.8622" ry="18.13" style="stroke:#2E4057;stroke-width:1.1976;"/><text fill="#000000" font-family="Arial" font-size="9.98" lengthAdjust="spacing" textLength="42.8876" x="219.0778" y="552.7511">Board or</text><text fill="#000000" font-family="Arial" font-size="9.98" lengthAdjust="spacing" textLength="73.4805" x="203.7813" y="564.3684">Alight Elevator</text></g><!--entity UC3--><g class="entity" data-qualified-name="Multi-Elevator Scheduling System.UC3" data-source-line="35" id="ent0008"><ellipse cx="341.3101" cy="211.4245" fill="#EAF0FB" rx="37.3501" ry="18.7783" style="stroke:#2E4057;stroke-width:1.1976;"/><text fill="#000000" font-family="Arial" font-size="9.98" lengthAdjust="spacing" textLength="41.6791" x="320.4705" y="206.9999">Observe</text><text fill="#000000" font-family="Arial" font-size="9.98" lengthAdjust="spacing" textLength="50.5723" x="316.0239" y="218.6172">Wait Time</text></g><!--entity UC4--><g class="entity" data-qualified-name="Multi-Elevator Scheduling System.UC4" data-source-line="36" id="ent0009"><ellipse cx="267.4627" cy="338.6052" fill="#EAF0FB" rx="52.4342" ry="18.1156" style="stroke:#2E4057;stroke-width:1.1976;"/><text fill="#000000" font-family="Arial" font-size="9.98" lengthAdjust="spacing" textLength="43.8329" x="245.5462" y="333.1749">Dispatch</text><text fill="#000000" font-family="Arial" font-size="9.98" lengthAdjust="spacing" textLength="75.9657" x="229.4798" y="344.7922">Elevator Action</text></g><!--entity UC5--><g class="entity" data-qualified-name="Multi-Elevator Scheduling System.UC5" data-source-line="37" id="ent0010"><ellipse cx="245.5067" cy="448.811" fill="#EAF0FB" rx="59.5998" ry="17.8431" style="stroke:#2E4057;stroke-width:1.1976;"/><text fill="#000000" font-family="Arial" font-size="9.98" lengthAdjust="spacing" textLength="88.5722" x="201.2206" y="447.6869">Serve Passengers</text><text fill="#000000" font-family="Arial" font-size="9.98" lengthAdjust="spacing" textLength="38.0291" x="226.4921" y="459.3042">at Floor</text></g><!--entity UC6--><g class="entity" data-qualified-name="Multi-Elevator Scheduling System.UC6" data-source-line="38" id="ent0011"><ellipse cx="382.2364" cy="448.8162" fill="#EAF0FB" rx="42.2088" ry="19.3653" style="stroke:#2E4057;stroke-width:1.1976;"/><text fill="#000000" font-family="Arial" font-size="9.98" lengthAdjust="spacing" textLength="54.8606" x="354.8061" y="445.2409">Learn from</text><text fill="#000000" font-family="Arial" font-size="9.98" lengthAdjust="spacing" textLength="55.6549" x="354.4089" y="456.8582">Experience</text></g><!--entity UC7--><g class="entity" data-qualified-name="Multi-Elevator Scheduling System.UC7" data-source-line="39" id="ent0012"><ellipse cx="460.0743" cy="211.4237" fill="#EAF0FB" rx="46.6639" ry="18.0888" style="stroke:#2E4057;stroke-width:1.1976;"/><text fill="#000000" font-family="Arial" font-size="9.98" lengthAdjust="spacing" textLength="37.9366" x="441.106" y="205.9514">Monitor</text><text fill="#000000" font-family="Arial" font-size="9.98" lengthAdjust="spacing" textLength="67.2186" x="426.465" y="217.5687">Training Logs</text></g><!--entity UC8--><g class="entity" data-qualified-name="Multi-Elevator Scheduling System.UC8" data-source-line="40" id="ent0013"><ellipse cx="610.7718" cy="211.4307" fill="#EAF0FB" rx="69.4881" ry="17.8265" style="stroke:#2E4057;stroke-width:1.1976;"/><text fill="#000000" font-family="Arial" font-size="9.98" lengthAdjust="spacing" textLength="43.5942" x="588.9747" y="205.5421">Evaluate</text><text fill="#000000" font-family="Arial" font-size="9.98" lengthAdjust="spacing" textLength="104.1611" x="558.6913" y="217.1595">System Performance</text></g><!--entity UC9--><g class="entity" data-qualified-name="Multi-Elevator Scheduling System.UC9" data-source-line="41" id="ent0014"><ellipse cx="624.7495" cy="338.6004" fill="#EAF0FB" rx="41.6497" ry="18.989" style="stroke:#2E4057;stroke-width:1.1976;"/><text fill="#000000" font-family="Arial" font-size="9.98" lengthAdjust="spacing" textLength="49.7683" x="599.8654" y="334.4846">Save Best</text><text fill="#000000" font-family="Arial" font-size="9.98" lengthAdjust="spacing" textLength="56.152" x="596.6736" y="346.1019">Checkpoint</text></g><!--entity P--><g class="entity" data-qualified-name="P" data-source-line="28" id="ent0002"><ellipse cx="227.5385" cy="50.0324" fill="#C8EDD8" rx="7.984" ry="7.984" style="stroke:#2E4057;stroke-width:0.499;"/><path d="M227.5385,58.0164 L227.5385,84.9623 M214.5646,66.0004 L240.5125,66.0004 M227.5385,84.9623 L214.5646,99.9323 M227.5385,84.9623 L240.5125,99.9323" fill="none" style="stroke:#2E4057;stroke-width:0.499;"/><text fill="#000000" font-family="Arial" font-size="10.978" font-weight="700" lengthAdjust="spacing" textLength="64.5009" x="195.2881" y="111.6193">Passenger</text></g><!--entity AG--><g class="entity" data-qualified-name="AG" data-source-line="29" id="ent0003"><ellipse cx="104.7923" cy="183.5844" fill="#D0C8F0" rx="7.984" ry="7.984" style="stroke:#2E4057;stroke-width:0.499;"/><path d="M104.7923,191.5684 L104.7923,218.5143 M91.8183,199.5523 L117.7663,199.5523 M104.7923,218.5143 L91.8183,233.4842 M104.7923,218.5143 L117.7663,233.4842" fill="none" style="stroke:#2E4057;stroke-width:0.499;"/><text fill="#000000" font-family="Arial" font-size="10.978" font-weight="700" lengthAdjust="spacing" textLength="92.1603" x="58.7122" y="245.1712">Elevator Agent</text></g><!--entity AD--><g class="entity" data-qualified-name="AD" data-source-line="30" id="ent0004"><ellipse cx="610.7716" cy="50.0324" fill="#F5DBA0" rx="7.984" ry="7.984" style="stroke:#2E4057;stroke-width:0.499;"/><path d="M610.7716,58.0164 L610.7716,84.9623 M597.7977,66.0004 L623.7456,66.0004 M610.7716,84.9623 L597.7977,99.9323 M610.7716,84.9623 L623.7456,99.9323" fill="none" style="stroke:#2E4057;stroke-width:0.499;"/><text fill="#000000" font-family="Arial" font-size="10.978" font-weight="700" lengthAdjust="spacing" textLength="85.9423" x="567.8005" y="111.6193">Administrator</text></g><!--link P to UC1--><g class="link" data-entity-1="ent0002" data-entity-2="ent0006" data-link-type="dependency" data-source-line="44" id="lnk15"><path d="M227.5434,114.4731 C227.5434,139.433 227.5434,165.8101 227.5434,185.8399" fill="none" id="P-to-UC1" style="stroke:#2E4057;stroke-width:1.1976;"/><polygon fill="#2E4057" points="227.5434,191.8278,231.5353,182.8459,227.5434,186.8379,223.5514,182.8459,227.5434,191.8278" style="stroke:#2E4057;stroke-width:1.1976;"/></g><!--link P to UC2--><g class="link" data-entity-1="ent0002" data-entity-2="ent0007" data-link-type="dependency" data-source-line="45" id="lnk16"><path d="M194.849,83.0162 C133.2226,92.8465 5.988,123.6447 5.988,210.4305 C5.988,210.4305 5.988,210.4305 5.988,449.8101 C5.988,530.079 114.9954,550.1388 183.947,555.2086" fill="none" id="P-to-UC2" style="stroke:#2E4057;stroke-width:1.1976;"/><polygon fill="#2E4057" points="189.9189,555.6477,181.2538,551.0078,184.9423,555.2818,180.6683,558.9703,189.9189,555.6477" style="stroke:#2E4057;stroke-width:1.1976;"/></g><!--link P to UC3--><g class="link" data-entity-1="ent0002" data-entity-2="ent0008" data-link-type="dependency" data-source-line="46" id="lnk17"><path d="M258.3316,114.4731 C280.7067,140.3511 306.0419,169.6433 323.1675,189.4536" fill="none" id="P-to-UC3" style="stroke:#2E4057;stroke-width:1.1976;"/><polygon fill="#2E4057" points="327.0836,193.9835,324.2295,184.5779,323.8202,190.2086,318.1895,189.7993,327.0836,193.9835" style="stroke:#2E4057;stroke-width:1.1976;"/></g><!--link AG to UC4--><g class="link" data-entity-1="ent0003" data-entity-2="ent0009" data-link-type="dependency" data-source-line="47" id="lnk18"><path d="M150.967,247.9652 C182.5337,272.2564 218.0978,299.6116 242.0697,318.0646" fill="none" id="AG-to-UC4" style="stroke:#2E4057;stroke-width:1.1976;"/><polygon fill="#2E4057" points="246.8147,321.7172,242.1323,313.075,242.8605,318.6734,237.2622,319.4016,246.8147,321.7172" style="stroke:#2E4057;stroke-width:1.1976;"/></g><!--link AG to UC5--><g class="link" data-entity-1="ent0003" data-entity-2="ent0010" data-link-type="dependency" data-source-line="48" id="lnk19"><path d="M101.2269,248.065 C99.0911,288.903 101.8157,355.8187 135.7276,399.5111 C150.8573,419.0019 169.7924,428.9806 191.908,436.0264" fill="none" id="AG-to-UC5" style="stroke:#2E4057;stroke-width:1.1976;"/><polygon fill="#2E4057" points="197.6134,437.8441,190.2671,431.3139,192.8589,436.3294,187.8435,438.9212,197.6134,437.8441" style="stroke:#2E4057;stroke-width:1.1976;"/></g><!--link AG to UC6--><g class="link" data-entity-1="ent0003" data-entity-2="ent0011" data-link-type="dependency" data-source-line="49" id="lnk20"><path d="M120.9373,247.9552 C142.8433,291.6675 186.4059,364.4115 247.5033,399.5111 C264.9583,409.5409 308.5691,424.3834 342.4411,435.2816" fill="none" id="AG-to-UC6" style="stroke:#2E4057;stroke-width:1.1976;"/><polygon fill="#2E4057" points="348.1413,437.1156,340.8137,430.5644,343.3912,435.5872,338.3683,438.1647,348.1413,437.1156" style="stroke:#2E4057;stroke-width:1.1976;"/></g><!--link AD to UC7--><g class="link" data-entity-1="ent0004" data-entity-2="ent0012" data-link-type="dependency" data-source-line="50" id="lnk21"><path d="M568.6488,114.5529 C554.3874,126.7185 538.4195,140.4509 523.9485,153.1255 C508.26,166.8679 495.0645,178.6973 482.3101,190.2442" fill="none" id="AD-to-UC7" style="stroke:#2E4057;stroke-width:1.1976;"/><polygon fill="#2E4057" points="477.871,194.263,487.2088,191.1942,481.5702,190.914,481.8504,185.2754,477.871,194.263" style="stroke:#2E4057;stroke-width:1.1976;"/></g><!--link AD to UC8--><g class="link" data-entity-1="ent0004" data-entity-2="ent0013" data-link-type="dependency" data-source-line="51" id="lnk22"><path d="M610.7743,114.4731 C610.7743,140.0418 610.7743,167.3869 610.7743,187.287" fill="none" id="AD-to-UC8" style="stroke:#2E4057;stroke-width:1.1976;"/><polygon fill="#2E4057" points="610.7743,193.2749,614.7663,184.293,610.7743,188.285,606.7823,184.293,610.7743,193.2749" style="stroke:#2E4057;stroke-width:1.1976;"/></g><!--link AD to UC9--><g class="link" data-entity-1="ent0004" data-entity-2="ent0014" data-link-type="dependency" data-source-line="52" id="lnk23"><path d="M653.9177,104.1039 C670.8437,116.519 688.3885,133.1356 697.6,153.1255 C715.1947,191.3288 709.4562,207.4066 697.6,247.7556 C688.658,278.2045 667.4772,301.3145 649.144,317.5918" fill="none" id="AD-to-UC9" style="stroke:#2E4057;stroke-width:1.1976;"/><polygon fill="#2E4057" points="644.6662,321.5675,654.0333,318.5892,648.3977,318.2545,648.7325,312.6189,644.6662,321.5675" style="stroke:#2E4057;stroke-width:1.1976;"/></g><!--link UC1 to UC4--><g class="link" data-entity-1="ent0006" data-entity-2="ent0009" data-link-type="dependency" data-source-line="54" id="lnk24"><path d="M233.4315,230.8994 C241.1161,254.9711 252.6201,291.0623 260.1151,314.5652" fill="none" id="UC1-to-UC4" style="stroke:#2E4057;stroke-width:1.1976;stroke-dasharray:6.986,6.986;"/><polygon fill="#2E4057" points="261.9343,320.2701,263.0087,310.4998,260.4183,315.516,255.4021,312.9255,261.9343,320.2701" style="stroke:#2E4057;stroke-width:1.1976;"/><text fill="#000000" font-family="Arial" font-size="8.982" lengthAdjust="spacing" textLength="43.5328" x="251.4953" y="287.0308">&#171;include&#187;</text></g><!--link UC4 to UC5--><g class="link" data-entity-1="ent0009" data-entity-2="ent0010" data-link-type="dependency" data-source-line="55" id="lnk25"><path d="M263.9403,356.9864 C259.8186,377.3056 254.2344,404.8205 250.1426,424.9601" fill="none" id="UC4-to-UC5" style="stroke:#2E4057;stroke-width:1.1976;stroke-dasharray:6.986,6.986;"/><polygon fill="#2E4057" points="248.9504,430.8282,254.6508,422.8209,249.9439,425.9381,246.8267,421.2312,248.9504,430.8282" style="stroke:#2E4057;stroke-width:1.1976;"/><text fill="#000000" font-family="Arial" font-size="8.982" lengthAdjust="spacing" textLength="43.5328" x="257.4833" y="396.8704">&#171;include&#187;</text></g><!--link UC5 to UC2--><g class="link" data-entity-1="ent0010" data-entity-2="ent0007" data-link-type="dependency" data-source-line="56" id="lnk26"><path d="M244.7089,467.0655 C243.7808,486.9755 242.5407,513.5786 241.6126,533.6283" fill="none" id="UC5-to-UC2" style="stroke:#2E4057;stroke-width:1.1976;stroke-dasharray:6.986,6.986;"/><polygon fill="#2E4057" points="241.3357,539.6099,245.7387,530.8221,241.5664,534.6252,237.7633,530.4529,241.3357,539.6099" style="stroke:#2E4057;stroke-width:1.1976;"/><text fill="#000000" font-family="Arial" font-size="8.982" lengthAdjust="spacing" textLength="43.5328" x="243.5113" y="507.4584">&#171;include&#187;</text></g><!--link UC4 to UC6--><g class="link" data-entity-1="ent0009" data-entity-2="ent0011" data-link-type="dependency" data-source-line="57" id="lnk27"><path d="M284.8982,356.0383 C306.3452,376.2577 338.205,406.3121 359.9014,426.7611" fill="none" id="UC4-to-UC6" style="stroke:#2E4057;stroke-width:1.1976;stroke-dasharray:6.986,6.986;"/><polygon fill="#2E4057" points="364.259,430.8681,360.4606,421.8026,360.6277,427.4456,354.9846,427.6126,364.259,430.8681" style="stroke:#2E4057;stroke-width:1.1976;"/><text fill="#000000" font-family="Arial" font-size="8.982" lengthAdjust="spacing" textLength="43.5328" x="328.3411" y="396.8704">&#171;include&#187;</text></g><!--link UC8 to UC9--><g class="link" data-entity-1="ent0013" data-entity-2="ent0014" data-link-type="dependency" data-source-line="58" id="lnk28"><path d="M612.6904,229.5721 C615.3152,253.1448 619.3722,289.4189 622.0569,313.5006" fill="none" id="UC8-to-UC9" style="stroke:#2E4057;stroke-width:1.1976;stroke-dasharray:6.986,6.986;"/><polygon fill="#2E4057" points="622.7203,319.4517,625.6926,310.0828,622.1674,314.4925,617.7577,310.9673,622.7203,319.4517" style="stroke:#2E4057;stroke-width:1.1976;"/><text fill="#000000" font-family="Arial" font-size="8.982" lengthAdjust="spacing" textLength="42.274" x="619.7562" y="287.0308">&#171;extend&#187;</text></g><?plantuml-src VPFBRjim44Nt_8g1iauWEv4VHM103xkRf0rg1zrumqXZYJ156YILHui2_OX-OR-arCCMQyUHDmFTm-6Tgx7UCh6ZYfRmHDDjhcGbibXogU1YqJn47uWCDxJYPY65-K9BX50noj_Nb-m7mc3WYBgWcNnX8eSDvHhTOpi60zydEgKSOUpxyC8oKn072LCZLIHLXgepDvpV-C7u13cU8PxCasHoZBtli9VCcpNo97dcg8yQKwhnOnDxwDZ6F5puY-WKx8tuvwvQ5IpT2jGQ1bT3rwrIykLi6BNuuSd3pLD7-OQfeIBdnrEEWsXq7dFl2HninGnt9hn-L-gZ9gP-2VTsWzZbdECpjPy3ubKoX-MRDbZ2tzz_wcmWjk50mcXkMzbZSWT6sXx6IBjCJ5btJ0f2QFqzmNkWMgF8KNbGFrJ30nmMesCEruKv2kFLKFWPBX8_dYpyFHHc9HDC6rMJBPFOVqcGHA5FYDg70jxH2CkqmApYzUgtWtZsrDJ-8lX90AhsQrkZgivmmQLKQn5JpY6gx4p2wsm_nWCNZoHL6THio5bU6DXVw7NqqAM_FcbKpxWMtoapDlyIspWElQzTEc5wHqrQh4MVJ9FgllUDIo_hpd38MQy5DUqSNai7Bds7L0dOA5dQxgyxL0n5YbxlPEJIzr8mKm-vKjIcRpEyaxbswB5BpvyfhwYnOtOhyu1g8rL9cniQVlAVSsgDHwYD3Rp0TBkJhFxyVVSf-KM8tPVBorcJ_w4SzkKriRlIbZTz6VJbYDX5QSjnNqxwSag8RGvNLqqF-0ItjqoalCfmDYFrcrO9JfIWKuPdpunEb4cdJ1i5NmsAR3Rx1m00?></g></svg>