<svg xmlns="http://www.w3.org/2000/svg" xmlns:xlink="http://www.w3.org/1999/xlink" contentStyleType="text/css" data-diagram-type="CLASS" height="592.6255px" preserveAspectRatio="none" style="width:729px;height:592px;background:#FFFFFF;" version="1.1" viewBox="0 0 729 592" width="729.3161px" zoomAndPan="magnify"><?plantuml 1.2026.3beta6?><defs/><g><g class="title" data-source-line="25"><text fill="#000000" font-family="Arial" font-size="11.6906" font-weight="700" lengthAdjust="spacing" textLength="245.6404" x="239.0653" y="19.8443">Multi-Elevator CTDE &#8212; Class Diagram</text></g><!--class MultiElevatorEnv--><g class="entity" data-qualified-name="MultiElevatorEnv" data-source-line="27" id="ent0002"><rect fill="#BDD5F5" height="102.3774" rx="2.2482" ry="2.2482" style="stroke:#2E4057;stroke-width:1.0791;" width="129.2039" x="191.3488" y="174.5078"/><ellipse cx="210.9753" cy="187.0977" fill="#ADD1B2" rx="8.0935" ry="8.0935" style="stroke:#181818;stroke-width:0.8993;"/><path d="M212.1275,190.0626 Q211.8184,190.2171 211.4811,190.2874 Q211.1439,190.3717 210.7645,190.3717 Q209.4437,190.3717 208.7411,189.5005 Q208.0526,188.6293 208.0526,186.9713 Q208.0526,185.3132 208.7411,184.4421 Q209.4437,183.5709 210.7645,183.5709 Q211.1439,183.5709 211.4811,183.6552 Q211.8324,183.7254 212.1275,183.88 L212.1275,185.3273 Q211.7903,185.0182 211.4671,184.8776 Q211.1579,184.7371 210.8348,184.7371 Q210.1182,184.7371 209.7528,185.2992 Q209.3875,185.8612 209.3875,186.9713 Q209.3875,188.0813 209.7528,188.6434 Q210.1182,189.2054 210.8348,189.2054 Q211.1579,189.2054 211.4671,189.0649 Q211.7903,188.9244 212.1275,188.6153 L212.1275,190.0626 Z " fill="#000000"/><text fill="#FFFFFF" font-family="Arial" font-size="8.9928" font-weight="700" lengthAdjust="spacing" textLength="86.3888" x="223.5302" y="190.211">MultiElevatorEnv</text><line style="stroke:#2E4057;stroke-width:1.0791;" x1="192.2481" x2="319.6534" y1="199.6877" y2="199.6877"/><text fill="#000000" font-family="Arial" font-size="8.9928" lengthAdjust="spacing" textLength="118.4125" x="196.7445" y="211.6321">+n=3, F=10, obs_dim=18</text><text fill="#000000" font-family="Arial" font-size="8.9928" lengthAdjust="spacing" textLength="104.3086" x="196.7445" y="222.1003">+pos[], hall[], targets[]</text><line style="stroke:#2E4057;stroke-width:0.8993;" x1="192.2481" x2="319.6534" y1="227.8183" y2="227.8183"/><text fill="#000000" font-family="Arial" font-size="8.9928" lengthAdjust="spacing" textLength="37.5256" x="196.7445" y="239.7627">+reset()</text><text fill="#000000" font-family="Arial" font-size="8.9928" lengthAdjust="spacing" textLength="66.3702" x="196.7445" y="250.2309">+step(actions)</text><text fill="#000000" font-family="Arial" font-size="8.9928" lengthAdjust="spacing" textLength="61.5533" x="196.7445" y="260.6991">+joint_state()</text><text fill="#000000" font-family="Arial" font-size="8.9928" lengthAdjust="spacing" textLength="49.9478" x="196.7445" y="271.1672">+_obs_all()</text></g><!--class QRDuelingNet--><g class="entity" data-qualified-name="QRDuelingNet" data-source-line="37" id="ent0003"><rect fill="#D0C8F0" height="70.9729" rx="2.2482" ry="2.2482" style="stroke:#2E4057;stroke-width:1.0791;" width="150.3949" x="6.295" y="508.7612"/><ellipse cx="42.3882" cy="521.3511" fill="#ADD1B2" rx="8.0935" ry="8.0935" style="stroke:#181818;stroke-width:0.8993;"/><path d="M43.5404,524.3159 Q43.2313,524.4705 42.8941,524.5408 Q42.5568,524.6251 42.1775,524.6251 Q40.8566,524.6251 40.1541,523.7539 Q39.4656,522.8827 39.4656,521.2247 Q39.4656,519.5666 40.1541,518.6954 Q40.8566,517.8243 42.1775,517.8243 Q42.5568,517.8243 42.8941,517.9086 Q43.2454,517.9788 43.5404,518.1334 L43.5404,519.5807 Q43.2032,519.2715 42.88,519.131 Q42.5709,518.9905 42.2477,518.9905 Q41.5311,518.9905 41.1658,519.5526 Q40.8004,520.1146 40.8004,521.2247 Q40.8004,522.3347 41.1658,522.8968 Q41.5311,523.4588 42.2477,523.4588 Q42.5709,523.4588 42.88,523.3183 Q43.2032,523.1778 43.5404,522.8687 L43.5404,524.3159 Z " fill="#000000"/><text fill="#FFFFFF" font-family="Arial" font-size="8.9928" font-weight="700" lengthAdjust="spacing" textLength="71.4638" x="58.1256" y="524.4644">QRDuelingNet</text><line style="stroke:#2E4057;stroke-width:1.0791;" x1="7.1942" x2="155.7906" y1="533.9411" y2="533.9411"/><text fill="#000000" font-family="Arial" font-size="8.9928" lengthAdjust="spacing" textLength="125.1352" x="11.6906" y="545.8855">+obs_dim=18, hidden=256</text><text fill="#000000" font-family="Arial" font-size="8.9928" lengthAdjust="spacing" textLength="139.6036" x="11.6906" y="556.3537">+n_quantiles=51, n_actions=3</text><line style="stroke:#2E4057;stroke-width:0.8993;" x1="7.1942" x2="155.7906" y1="562.0717" y2="562.0717"/><text fill="#000000" font-family="Arial" font-size="8.9928" lengthAdjust="spacing" textLength="54.5101" x="11.6906" y="574.0161">+forward(x)</text></g><!--class CentralisedCritic--><g class="entity" data-qualified-name="CentralisedCritic" data-source-line="44" id="ent0004"><rect fill="#D0C8F0" height="60.5047" rx="2.2482" ry="2.2482" style="stroke:#2E4057;stroke-width:1.0791;" width="139.7555" x="187.8776" y="513.995"/><ellipse cx="212.9735" cy="526.5849" fill="#ADD1B2" rx="8.0935" ry="8.0935" style="stroke:#181818;stroke-width:0.8993;"/><path d="M214.1257,529.5498 Q213.8166,529.7043 213.4794,529.7746 Q213.1421,529.8589 212.7627,529.8589 Q211.4419,529.8589 210.7394,528.9877 Q210.0509,528.1165 210.0509,526.4585 Q210.0509,524.8004 210.7394,523.9293 Q211.4419,523.0581 212.7627,523.0581 Q213.1421,523.0581 213.4794,523.1424 Q213.8306,523.2126 214.1257,523.3672 L214.1257,524.8145 Q213.7885,524.5054 213.4653,524.3648 Q213.1562,524.2243 212.833,524.2243 Q212.1164,524.2243 211.7511,524.7864 Q211.3857,525.3484 211.3857,526.4585 Q211.3857,527.5685 211.7511,528.1306 Q212.1164,528.6926 212.833,528.6926 Q213.1562,528.6926 213.4653,528.5521 Q213.7885,528.4116 214.1257,528.1025 L214.1257,529.5498 Z " fill="#000000"/><text fill="#FFFFFF" font-family="Arial" font-size="8.9928" font-weight="700" lengthAdjust="spacing" textLength="84.7861" x="226.7438" y="529.6982">CentralisedCritic</text><line style="stroke:#2E4057;stroke-width:1.0791;" x1="188.7769" x2="326.7338" y1="539.1749" y2="539.1749"/><text fill="#000000" font-family="Arial" font-size="8.9928" lengthAdjust="spacing" textLength="128.9641" x="193.2733" y="551.1193">+joint_dim=16, hidden=256</text><line style="stroke:#2E4057;stroke-width:0.8993;" x1="188.7769" x2="326.7338" y1="556.8373" y2="556.8373"/><text fill="#000000" font-family="Arial" font-size="8.9928" lengthAdjust="spacing" textLength="54.5101" x="193.2733" y="568.7817">+forward(x)</text></g><!--class PrioritizedReplayBuffer--><g class="entity" data-qualified-name="PrioritizedReplayBuffer" data-source-line="50" id="ent0005"><rect fill="#C8EDD8" height="60.5047" rx="2.2482" ry="2.2482" style="stroke:#2E4057;stroke-width:1.0791;" width="176.46" x="359.2714" y="513.995"/><ellipse cx="385.4679" cy="526.5849" fill="#ADD1B2" rx="8.0935" ry="8.0935" style="stroke:#181818;stroke-width:0.8993;"/><path d="M386.6201,529.5498 Q386.311,529.7043 385.9737,529.7746 Q385.6365,529.8589 385.2571,529.8589 Q383.9363,529.8589 383.2338,528.9877 Q382.5452,528.1165 382.5452,526.4585 Q382.5452,524.8004 383.2338,523.9293 Q383.9363,523.0581 385.2571,523.0581 Q385.6365,523.0581 385.9737,523.1424 Q386.325,523.2126 386.6201,523.3672 L386.6201,524.8145 Q386.2829,524.5054 385.9597,524.3648 Q385.6506,524.2243 385.3274,524.2243 Q384.6108,524.2243 384.2454,524.7864 Q383.8801,525.3484 383.8801,526.4585 Q383.8801,527.5685 384.2454,528.1306 Q384.6108,528.6926 385.3274,528.6926 Q385.6506,528.6926 385.9597,528.5521 Q386.2829,528.4116 386.6201,528.1025 L386.6201,529.5498 Z " fill="#000000"/><text fill="#FFFFFF" font-family="Arial" font-size="8.9928" font-weight="700" lengthAdjust="spacing" textLength="119.0448" x="399.4828" y="529.6982">PrioritizedReplayBuffer</text><line style="stroke:#2E4057;stroke-width:1.0791;" x1="360.1706" x2="534.8321" y1="539.1749" y2="539.1749"/><text fill="#000000" font-family="Arial" font-size="8.9928" lengthAdjust="spacing" textLength="127.8883" x="364.667" y="551.1193">+capacity=200k, alpha=0.6</text><line style="stroke:#2E4057;stroke-width:0.8993;" x1="360.1706" x2="534.8321" y1="556.8373" y2="556.8373"/><text fill="#000000" font-family="Arial" font-size="8.9928" lengthAdjust="spacing" textLength="165.6686" x="364.667" y="568.7817">+add(), sample(), update_priorities()</text></g><!--class CTDEQRDQNAgent--><g class="entity" data-qualified-name="CTDEQRDQNAgent" data-source-line="56" id="ent0006"><rect fill="#F5C8C0" height="102.3774" rx="2.2482" ry="2.2482" style="stroke:#2E4057;stroke-width:1.0791;" width="136.7389" x="283.8038" y="341.63"/><ellipse cx="303.5113" cy="354.2199" fill="#ADD1B2" rx="8.0935" ry="8.0935" style="stroke:#181818;stroke-width:0.8993;"/><path d="M304.6635,357.1848 Q304.3544,357.3393 304.0171,357.4096 Q303.6799,357.4939 303.3005,357.4939 Q301.9797,357.4939 301.2771,356.6227 Q300.5886,355.7515 300.5886,354.0935 Q300.5886,352.4354 301.2771,351.5643 Q301.9797,350.6931 303.3005,350.6931 Q303.6799,350.6931 304.0171,350.7774 Q304.3684,350.8476 304.6635,351.0022 L304.6635,352.4495 Q304.3262,352.1404 304.0031,351.9998 Q303.6939,351.8593 303.3708,351.8593 Q302.6542,351.8593 302.2888,352.4214 Q301.9235,352.9834 301.9235,354.0935 Q301.9235,355.2035 302.2888,355.7656 Q302.6542,356.3276 303.3708,356.3276 Q303.6939,356.3276 304.0031,356.1871 Q304.3262,356.0466 304.6635,355.7375 L304.6635,357.1848 Z " fill="#000000"/><text fill="#FFFFFF" font-family="Arial" font-size="8.9928" font-weight="700" lengthAdjust="spacing" textLength="93.7438" x="316.0842" y="357.3332">CTDEQRDQNAgent</text><line style="stroke:#2E4057;stroke-width:1.0791;" x1="284.7031" x2="419.6434" y1="366.8099" y2="366.8099"/><text fill="#000000" font-family="Arial" font-size="8.9928" lengthAdjust="spacing" textLength="123.0758" x="289.1995" y="378.7543">+gamma=0.99, tau=0.002</text><text fill="#000000" font-family="Arial" font-size="8.9928" lengthAdjust="spacing" textLength="125.9475" x="289.1995" y="389.2225">+grad_clip=1.5, batch=256</text><line style="stroke:#2E4057;stroke-width:0.8993;" x1="284.7031" x2="419.6434" y1="394.9405" y2="394.9405"/><text fill="#000000" font-family="Arial" font-size="8.9928" lengthAdjust="spacing" textLength="66.0716" x="289.1995" y="406.8849">+act(obs, eps)</text><text fill="#000000" font-family="Arial" font-size="8.9928" lengthAdjust="spacing" textLength="79.1876" x="289.1995" y="417.3531">+push(transition)</text><text fill="#000000" font-family="Arial" font-size="8.9928" lengthAdjust="spacing" textLength="59.4324" x="289.1995" y="427.8213">+train_step()</text><text fill="#000000" font-family="Arial" font-size="8.9928" lengthAdjust="spacing" textLength="45.1836" x="289.1995" y="438.2894">+set_lr(lr)</text></g><!--class BaselinePolicy--><g class="entity" data-qualified-name="BaselinePolicy" data-source-line="66" id="ent0007"><rect fill="#F5DBA0" height="60.5047" rx="2.2482" ry="2.2482" style="stroke:#2E4057;stroke-width:1.0791;" width="98.3473" x="467.5717" y="195.4431"/><ellipse cx="479.2623" cy="208.033" fill="#ADD1B2" rx="8.0935" ry="8.0935" style="stroke:#181818;stroke-width:0.8993;"/><path d="M480.4145,210.9978 Q480.1054,211.1524 479.7681,211.2226 Q479.4309,211.3069 479.0515,211.3069 Q477.7307,211.3069 477.0281,210.4357 Q476.3396,209.5646 476.3396,207.9065 Q476.3396,206.2485 477.0281,205.3773 Q477.7307,204.5061 479.0515,204.5061 Q479.4309,204.5061 479.7681,204.5904 Q480.1194,204.6607 480.4145,204.8152 L480.4145,206.2625 Q480.0773,205.9534 479.7541,205.8129 Q479.445,205.6724 479.1218,205.6724 Q478.4052,205.6724 478.0398,206.2344 Q477.6745,206.7965 477.6745,207.9065 Q477.6745,209.0166 478.0398,209.5786 Q478.4052,210.1407 479.1218,210.1407 Q479.445,210.1407 479.7541,210.0002 Q480.0773,209.8596 480.4145,209.5505 L480.4145,210.9978 Z " fill="#000000"/><text fill="#FFFFFF" font-family="Arial" font-size="8.9928" font-weight="700" lengthAdjust="spacing" textLength="73.1675" x="490.0537" y="211.1462">BaselinePolicy</text><line style="stroke:#2E4057;stroke-width:1.0791;" x1="468.4709" x2="565.0197" y1="220.6229" y2="220.6229"/><line style="stroke:#2E4057;stroke-width:0.8993;" x1="468.4709" x2="565.0197" y1="227.8171" y2="227.8171"/><text fill="#000000" font-family="Arial" font-size="8.9928" font-style="italic" lengthAdjust="spacing" textLength="64.5435" x="472.9673" y="239.7616">+__call__(env)</text><text fill="#000000" font-family="Arial" font-size="8.9928" lengthAdjust="spacing" textLength="37.5256" x="472.9673" y="250.2298">+reset()</text></g><!--class EvaluatorLogger--><g class="entity" data-qualified-name="EvaluatorLogger" data-source-line="72" id="ent0008"><rect fill="#EAF0FB" height="70.9729" rx="2.2482" ry="2.2482" style="stroke:#2E4057;stroke-width:1.0791;" width="109.0351" x="329.1365" y="38.7885"/><ellipse cx="340.8271" cy="51.3784" fill="#ADD1B2" rx="8.0935" ry="8.0935" style="stroke:#181818;stroke-width:0.8993;"/><path d="M341.9793,54.3432 Q341.6702,54.4978 341.333,54.568 Q340.9957,54.6523 340.6164,54.6523 Q339.2955,54.6523 338.593,53.7812 Q337.9045,52.91 337.9045,51.2519 Q337.9045,49.5939 338.593,48.7227 Q339.2955,47.8515 340.6164,47.8515 Q340.9957,47.8515 341.333,47.9358 Q341.6843,48.0061 341.9793,48.1607 L341.9793,49.6079 Q341.6421,49.2988 341.3189,49.1583 Q341.0098,49.0178 340.6866,49.0178 Q339.97,49.0178 339.6047,49.5798 Q339.2393,50.1419 339.2393,51.2519 Q339.2393,52.362 339.6047,52.924 Q339.97,53.4861 340.6866,53.4861 Q341.0098,53.4861 341.3189,53.3456 Q341.6421,53.2051 341.9793,52.8959 L341.9793,54.3432 Z " fill="#000000"/><text fill="#FFFFFF" font-family="Arial" font-size="8.9928" font-weight="700" lengthAdjust="spacing" textLength="83.8552" x="351.6185" y="54.4916">EvaluatorLogger</text><line style="stroke:#2E4057;stroke-width:1.0791;" x1="330.0358" x2="437.2723" y1="63.9683" y2="63.9683"/><line style="stroke:#2E4057;stroke-width:0.8993;" x1="330.0358" x2="437.2723" y1="71.1626" y2="71.1626"/><text fill="#000000" font-family="Arial" font-size="8.9928" lengthAdjust="spacing" textLength="63.8893" x="334.5322" y="83.107">+eval_agent()</text><text fill="#000000" font-family="Arial" font-size="8.9928" lengthAdjust="spacing" textLength="64.3855" x="334.5322" y="93.5752">+eval_policy()</text><text fill="#000000" font-family="Arial" font-size="8.9928" lengthAdjust="spacing" textLength="90.0685" x="334.5322" y="104.0434">+composite_score()</text></g><g class="entity" data-qualified-name="GMN18" data-source-line="93" id="ent0019"><path d="M566.9151,530.3259 L566.9151,558.1615 A0,0 0 0 0 566.9151,558.1615 L716.5767,558.1615 A0,0 0 0 0 716.5767,558.1615 L716.5767,539.3187 L707.5839,530.3259 L619.469,530.3259 L420.8001,429.1839 L612.2748,530.3259 L566.9151,530.3259 A0,0 0 0 0 566.9151,530.3259" fill="#FAEEDA" style="stroke:#C8A000;stroke-width:0.4496;"/><path d="M707.5839,530.3259 L707.5839,539.3187 L716.5767,539.3187 L707.5839,530.3259" fill="#FAEEDA" style="stroke:#C8A000;stroke-width:0.4496;"/><text fill="#000000" font-family="Arial" font-size="8.0935" lengthAdjust="spacing" textLength="118.2847" x="572.3108" y="542.3349">Training: actor + critic active</text><text fill="#000000" font-family="Arial" font-size="8.0935" lengthAdjust="spacing" textLength="130.7767" x="572.3108" y="551.7563">Inference: actor only (no comm)</text></g><!--reverse link CTDEQRDQNAgent to QRDuelingNet--><g class="link" data-entity-1="ent0006" data-entity-2="ent0003" data-link-type="composition" data-source-line="79" id="lnk9"><path codeLine="79" d="M274.0797,436.894 C231.3908,460.4822 186.3668,485.3799 144.7391,508.3835" fill="none" id="CTDEQRDQNAgent-backto-QRDuelingNet" style="stroke:#2E4057;stroke-width:1.0791;"/><polygon fill="#2E4057" points="283.525,431.6749,277.0626,431.136,274.0797,436.894,280.542,437.4329,283.525,431.6749" style="stroke:#2E4057;stroke-width:1.0791;"/><text fill="#000000" font-family="Arial" font-size="8.0935" lengthAdjust="spacing" textLength="57.5399" x="210.0898" y="479.4033">actor + target</text></g><!--reverse link CTDEQRDQNAgent to CentralisedCritic--><g class="link" data-entity-1="ent0006" data-entity-2="ent0004" data-link-type="composition" data-source-line="80" id="lnk10"><path codeLine="80" d="M314.4476,453.5079 C299.8973,476.5655 288.9387,493.9321 276.4657,513.6983" fill="none" id="CTDEQRDQNAgent-backto-CentralisedCritic" style="stroke:#2E4057;stroke-width:1.0791;"/><polygon fill="#2E4057" points="320.2066,444.3818,314.2851,447.0252,314.4476,453.5079,320.3692,450.8645,320.2066,444.3818" style="stroke:#2E4057;stroke-width:1.0791;"/><text fill="#000000" font-family="Arial" font-size="8.0935" lengthAdjust="spacing" textLength="56.5756" x="303.6149" y="479.4033">critic + target</text></g><!--reverse link CTDEQRDQNAgent to PrioritizedReplayBuffer--><g class="link" data-entity-1="ent0006" data-entity-2="ent0005" data-link-type="composition" data-source-line="81" id="lnk11"><path codeLine="81" d="M390.2483,453.4838 C404.9335,476.5414 416.0159,493.9321 428.6059,513.6983" fill="none" id="CTDEQRDQNAgent-backto-PrioritizedReplayBuffer" style="stroke:#2E4057;stroke-width:1.0791;"/><polygon fill="#2E4057" points="384.4512,444.3818,384.3157,450.8651,390.2483,453.4838,390.3838,447.0004,384.4512,444.3818" style="stroke:#2E4057;stroke-width:1.0791;"/></g><!--link MultiElevatorEnv to CTDEQRDQNAgent--><g class="link" data-entity-1="ent0002" data-entity-2="ent0006" data-link-type="dependency" data-source-line="83" id="lnk12"><path codeLine="83" d="M203.6599,277.3315 C196.9333,289.5527 194.6222,302.5653 201.9963,314.6516 C219.9369,344.0671 248.0046,360.8375 278.5801,372.4562" fill="none" id="MultiElevatorEnv-to-CTDEQRDQNAgent" style="stroke:#2E4057;stroke-width:1.0791;"/><polygon fill="#2E4057" points="283.6239,374.3728,277.336,368.1353,279.4208,372.7756,274.7805,374.8604,283.6239,374.3728" style="stroke:#2E4057;stroke-width:1.0791;"/><text fill="#000000" font-family="Arial" font-size="8.0935" lengthAdjust="spacing" textLength="79.062" x="202.8956" y="312.2721">obs[n,18] / rewards</text></g><!--link CTDEQRDQNAgent to MultiElevatorEnv--><g class="link" data-entity-1="ent0006" data-entity-2="ent0002" data-link-type="dependency" data-source-line="84" id="lnk13"><path codeLine="84" d="M322.7066,341.2883 C310.8901,320.9915 300.0165,302.3004 288.1909,281.9856" fill="none" id="CTDEQRDQNAgent-to-MultiElevatorEnv" style="stroke:#2E4057;stroke-width:1.0791;"/><polygon fill="#2E4057" points="285.4764,277.3225,286.4394,286.1269,287.7385,281.2085,292.6569,282.5076,285.4764,277.3225" style="stroke:#2E4057;stroke-width:1.0791;"/><text fill="#000000" font-family="Arial" font-size="8.0935" lengthAdjust="spacing" textLength="40.5743" x="308.1113" y="312.2721">actions[n]</text></g><!--reverse link BaselinePolicy to CTDEQRDQNAgent--><g class="link" data-entity-1="ent0007" data-entity-2="ent0006" data-link-type="extension" data-source-line="86" id="lnk14"><path codeLine="86" d="M475.9002,267.6256 C452.42,291.2137 430.3954,313.3477 402.6526,341.2163" fill="none" id="BaselinePolicy-backto-CTDEQRDQNAgent" style="stroke:#2E4057;stroke-width:1.0791;"/><polygon fill="none" points="487.3198,256.1535,472.0761,263.8191,479.7242,271.4322,487.3198,256.1535" style="stroke:#2E4057;stroke-width:1.0791;"/><text fill="#000000" font-family="Arial" font-size="8.0935" lengthAdjust="spacing" textLength="83.7964" x="440.3055" y="312.2721">extends (eval mode)</text></g><!--link EvaluatorLogger to CTDEQRDQNAgent--><g class="link" data-entity-1="ent0008" data-entity-2="ent0006" data-link-type="dependency" data-source-line="88" id="lnk15"><path codeLine="88" d="M380.1886,109.9755 C374.6221,166.0636 364.1571,271.3237 357.7272,336.0719" fill="none" id="EvaluatorLogger-to-CTDEQRDQNAgent" style="stroke:#2E4057;stroke-width:1.0791;stroke-dasharray:6.295,6.295;"/><polygon fill="#2E4057" points="357.194,341.4412,361.5733,333.7427,357.6384,336.9668,354.4143,333.0318,357.194,341.4412" style="stroke:#2E4057;stroke-width:1.0791;"/><text fill="#000000" font-family="Arial" font-size="8.0935" lengthAdjust="spacing" textLength="50.7189" x="374.658" y="228.711">eval_agent()</text></g><!--link EvaluatorLogger to BaselinePolicy--><g class="link" data-entity-1="ent0008" data-entity-2="ent0007" data-link-type="dependency" data-source-line="89" id="lnk16"><path codeLine="89" d="M414.5231,109.8766 C437.4817,135.6859 464.904,166.5094 486.7206,191.0507" fill="none" id="EvaluatorLogger-to-BaselinePolicy" style="stroke:#2E4057;stroke-width:1.0791;stroke-dasharray:6.295,6.295;"/><polygon fill="#2E4057" points="490.3055,195.0833,487.6166,186.6445,487.3181,191.7228,482.2397,191.4243,490.3055,195.0833" style="stroke:#2E4057;stroke-width:1.0791;"/><text fill="#000000" font-family="Arial" font-size="8.0935" lengthAdjust="spacing" textLength="51.1654" x="447.4997" y="145.1499">eval_policy()</text></g><!--link EvaluatorLogger to MultiElevatorEnv--><g class="link" data-entity-1="ent0008" data-entity-2="ent0002" data-link-type="dependency" data-source-line="90" id="lnk17"><path codeLine="90" d="M343.8217,110.0654 C334.9818,118.4737 325.8991,127.6553 318.0034,136.7381 C307.9405,148.3118 301.0779,157.1017 292.1571,169.6916" fill="none" id="EvaluatorLogger-to-MultiElevatorEnv" style="stroke:#2E4057;stroke-width:1.0791;stroke-dasharray:6.295,6.295;"/><polygon fill="#2E4057" points="289.0376,174.0941,296.6518,169.57,291.6372,170.4254,290.7818,165.4107,289.0376,174.0941" style="stroke:#2E4057;stroke-width:1.0791;"/><text fill="#000000" font-family="Arial" font-size="8.0935" lengthAdjust="spacing" textLength="41.1631" x="318.9027" y="145.1499">env_ctor()</text></g><?plantuml-src VLJRRjiu47tNLn38YxoLNTbPjqwmAY1BDbfWD-WbRq4WqDBOPaEHMf9owdOBz2FwXVsI3Yd7KHHv_MAHS-RCy9mXzHqJ5LMq92kQtssKh4MHI2uLELkwdwUFY0BMjEPcAOMveYMGM37A--EVs5SWux0Lr5jQo7icDcHDkOPsMiKGYjYSSY2lmv3Siy9ilHOauLJhkLG5g4DpayMVuVHrF-Hwo_8x0LgJyMZIXRm5Yf1vzx3zVFOefzGu0ZwPFVQzahpeZJebnjrGR8nYgzh0krmAXmbFGle5ZPMIzwUwTy5JEhZWaVIY5RcI1fv9iumNYpJkejfc9BCu3CCEehV0DJEyTPxptj2Zdfwnc-GVd2esN73OKOFrakjqGNxz-Dd8H596DqZWURbREl03TY5sv6oUfjFbb7pp27aXelE0BADn612vqbd1ocWyiu5AwflRW6mfv_RVKBK1WriO6mujG846um_ifpPG-JGtJ0hjDZvB9aoc3JNG839BZbIu-lxGs8UFQGqSRy0L67AMXibi6JPDFNQ23R2Y015DfgzSkzc_DHM6ST3HT1mGaHtAHkV7njPItLDL-5zQjH8GHb7ED1I9OeRbJmis_RgIhpebJtE-LqnQhgzGV8IAq_syNg_1sRz8qrd3dDEAvipieqaOtWM4ycfBet3qo4oBmXy4HDEouc2_wgf0sRBgm0wwhPcr6dNxS1Lly4GuYzDabXmEiQ5bQRalBgnTDNw5uSG552sodBCg6e-c0Jvi9jy-EHrgwAFc0O6gyQ-gzTP7mOHcLbstXqicCcTrOpgOZ2kVgrPxSwgje_1USfRlRNlfF6xQQofzeokDHBdvJh8CtpUUPJw8tQ0zK4UsnOxosaxjttApiS8kucMudBVeSAXvHgqKJKzkNRdYpKOkInnaXdhgN2fes3iY_Z4SFfr5zxias2LUhXU7qU_BUZvLboHlFlulxSJWUDwpgpeSlkbQZYNGgXiHZ6Utv2LHOETITyiGbzhbSsUoj-L6t7fUnwo__hCdwj9S4lXYG1IQ-5PSKie21fxNjMOqUjERs_QdBwVJmp7dw65VqZEPC4diCciNPdW27rjyBesH9P7hJbiu5DTsaD7gHuSFdbbnTe28TmBj09730qGAlYU-a0JdgHnug0UnLNu3?></g></svg>