<svg xmlns="http://www.w3.org/2000/svg" xmlns:xlink="http://www.w3.org/1999/xlink" contentStyleType="text/css" data-diagram-type="ACTIVITY" height="929.1592px" preserveAspectRatio="none" style="width:729px;height:929px;background:#FFFFFF;" version="1.1" viewBox="0 0 729 929" width="729.5052px" zoomAndPan="magnify"><?plantuml 1.2026.3beta6?><defs/><g><g class="title" data-source-line="25"><text fill="#000000" font-family="Arial" font-size="11.0919" font-weight="700" lengthAdjust="spacing" textLength="248.2569" x="240.0283" y="27.3602">Multi-Elevator CTDE &#8212; Activity Diagram</text></g><rect fill="none" height="10.9252" style="stroke:none;stroke-width:0.8532;" width="689.9184" x="17.0644" y="44.5613"/><rect fill="#EAF7EF" height="867.4006" style="stroke:#EAF7EF;stroke-width:0.8532;" width="106.3112" x="17.0644" y="44.5613"/><ellipse cx="71.0733" cy="68.2849" fill="#222222" rx="8.5322" ry="8.5322" style="stroke:#222222;stroke-width:0.8532;"/><rect fill="#EAF0FB" height="26.9965" rx="10.6653" ry="10.6653" style="stroke:#2E4057;stroke-width:1.0239;" width="80.3521" x="30.8972" y="93.8815"/><text fill="#000000" font-family="Arial" font-size="8.5322" lengthAdjust="spacing" textLength="63.2876" x="39.4295" y="110.3336">Arrives at floor</text><rect fill="#EAF0FB" height="26.9965" rx="10.6653" ry="10.6653" style="stroke:#2E4057;stroke-width:1.0239;" width="97.779" x="22.1838" y="137.9425"/><text fill="#000000" font-family="Arial" font-size="8.5322" lengthAdjust="spacing" textLength="80.7145" x="30.716" y="154.3945">Presses call button</text><line style="stroke:#000000;stroke-width:1.2798;" x1="17.0644" x2="17.0644" y1="44.5613" y2="911.9619"/><rect fill="#EAF0FB" height="867.4006" style="stroke:#EAF0FB;stroke-width:0.8532;" width="158.896" x="123.3756" y="44.5613"/><rect fill="#EAF0FB" height="26.9965" rx="10.6653" ry="10.6653" style="stroke:#2E4057;stroke-width:1.0239;" width="126.9168" x="140.2184" y="182.0034"/><text fill="#000000" font-family="Arial" font-size="8.5322" lengthAdjust="spacing" textLength="109.8524" x="148.7507" y="198.4555">Records hall call in queue</text><rect fill="#EAF0FB" height="36.9285" rx="10.6653" ry="10.6653" style="stroke:#2E4057;stroke-width:1.0239;" width="117.3764" x="144.9887" y="226.0644"/><text fill="#000000" font-family="Arial" font-size="8.5322" lengthAdjust="spacing" textLength="97.4665" x="153.5209" y="242.5164">Generates observation</text><text fill="#000000" font-family="Arial" font-size="8.5322" lengthAdjust="spacing" textLength="100.312" x="153.5209" y="252.4484">for each elevator agent</text><rect fill="#EAF0FB" height="26.9965" rx="10.6653" ry="10.6653" style="stroke:#2E4057;stroke-width:1.0239;" width="130.8247" x="138.2645" y="422.1722"/><text fill="#000000" font-family="Arial" font-size="8.5322" lengthAdjust="spacing" textLength="113.7602" x="146.7967" y="438.6242">Serves passengers at floor</text><rect fill="#EAF0FB" height="26.9965" rx="10.6653" ry="10.6653" style="stroke:#2E4057;stroke-width:1.0239;" width="150.3638" x="128.495" y="466.2331"/><text fill="#000000" font-family="Arial" font-size="8.5322" lengthAdjust="spacing" textLength="133.2993" x="137.0272" y="482.6852">Computes decomposed reward</text><rect fill="#EAF0FB" height="26.9965" rx="10.6653" ry="10.6653" style="stroke:#2E4057;stroke-width:1.0239;" width="99.9412" x="153.7063" y="510.2941"/><text fill="#000000" font-family="Arial" font-size="8.5322" lengthAdjust="spacing" textLength="82.8767" x="162.2385" y="526.7461">Updates hall queue</text><line style="stroke:#000000;stroke-width:1.2798;" x1="123.3756" x2="123.3756" y1="44.5613" y2="911.9619"/><rect fill="#F3F0FB" height="867.4006" style="stroke:#F3F0FB;stroke-width:0.8532;" width="160.7333" x="282.2716" y="44.5613"/><rect fill="#EAF0FB" height="26.9965" rx="10.6653" ry="10.6653" style="stroke:#2E4057;stroke-width:1.0239;" width="112.1271" x="307.428" y="280.0573"/><text fill="#000000" font-family="Arial" font-size="8.5322" lengthAdjust="spacing" textLength="95.0626" x="315.9602" y="296.5094">Receives obs (dim 18)</text><rect fill="#EAF0FB" height="36.9285" rx="10.6653" ry="10.6653" style="stroke:#2E4057;stroke-width:1.0239;" width="114.5226" x="306.2302" y="324.1183"/><text fill="#000000" font-family="Arial" font-size="8.5322" lengthAdjust="spacing" textLength="75.1027" x="314.7624" y="340.5703">Selects action via</text><text fill="#000000" font-family="Arial" font-size="8.5322" lengthAdjust="spacing" textLength="97.4582" x="314.7624" y="350.5024">QR-DQN actor network</text><rect fill="#EAF0FB" height="26.9965" rx="10.6653" ry="10.6653" style="stroke:#2E4057;stroke-width:1.0239;" width="133.9284" x="296.5273" y="378.1113"/><text fill="#000000" font-family="Arial" font-size="8.5322" lengthAdjust="spacing" textLength="116.864" x="305.0595" y="394.5633">Executes UP / DOWN / IDLE</text><rect fill="#EAF0FB" height="36.9285" rx="10.6653" ry="10.6653" style="stroke:#2E4057;stroke-width:1.0239;" width="98.0997" x="314.4416" y="554.355"/><text fill="#000000" font-family="Arial" font-size="8.5322" lengthAdjust="spacing" textLength="81.0353" x="322.9738" y="570.807">Stores transition in</text><text fill="#000000" font-family="Arial" font-size="8.5322" lengthAdjust="spacing" textLength="44.765" x="322.9738" y="580.7391">PER buffer</text><rect fill="#EAF0FB" height="26.9965" rx="10.6653" ry="10.6653" style="stroke:#2E4057;stroke-width:1.0239;" width="152.201" x="287.391" y="608.348"/><text fill="#000000" font-family="Arial" font-size="8.5322" lengthAdjust="spacing" textLength="135.1366" x="295.9232" y="624.8">Trains actor and critic networks</text><line style="stroke:#000000;stroke-width:1.2798;" x1="282.2716" x2="282.2716" y1="44.5613" y2="911.9619"/><rect fill="#FAEEDA" height="867.4006" style="stroke:#FAEEDA;stroke-width:0.8532;" width="263.3395" x="443.0049" y="44.5613"/><rect fill="#EAF0FB" height="26.9965" rx="10.6653" ry="10.6653" style="stroke:#2E4057;stroke-width:1.0239;" width="122.734" x="523.5211" y="652.4089"/><text fill="#000000" font-family="Arial" font-size="8.5322" lengthAdjust="spacing" textLength="105.6696" x="532.0533" y="668.861">Reviews training metrics</text><polygon fill="#FAEEDA" points="533.7364,696.4699,636.0398,696.4699,646.2785,706.7085,636.0398,716.9472,533.7364,716.9472,523.4978,706.7085,533.7364,696.4699" style="stroke:#C8A000;stroke-width:1.0239;"/><text fill="#000000" font-family="Arial" font-size="8.5322" lengthAdjust="spacing" textLength="102.3034" x="533.7364" y="709.6623">Performance improved?</text><text fill="#000000" font-family="Arial" font-size="9.3854" lengthAdjust="spacing" textLength="16.2183" x="507.2795" y="704.4951">yes</text><text fill="#000000" font-family="Arial" font-size="9.3854" lengthAdjust="spacing" textLength="11.6906" x="646.2785" y="704.4951">no</text><rect fill="#EAF0FB" height="26.9965" rx="10.6653" ry="10.6653" style="stroke:#2E4057;stroke-width:1.0239;" width="133.6826" x="448.1242" y="725.4794"/><text fill="#000000" font-family="Arial" font-size="8.5322" lengthAdjust="spacing" textLength="116.6182" x="456.6565" y="741.9315">Composite score evaluated</text><rect fill="#EAF0FB" height="26.9965" rx="10.6653" ry="10.6653" style="stroke:#2E4057;stroke-width:1.0239;" width="113.5102" x="458.2104" y="769.5404"/><text fill="#000000" font-family="Arial" font-size="8.5322" lengthAdjust="spacing" textLength="96.4458" x="466.7427" y="785.9924">Best checkpoint saved</text><rect fill="#EAF0FB" height="26.9965" rx="10.6653" ry="10.6653" style="stroke:#2E4057;stroke-width:1.0239;" width="96.2417" x="606.6899" y="725.4794"/><text fill="#000000" font-family="Arial" font-size="8.5322" lengthAdjust="spacing" textLength="79.1772" x="615.2221" y="741.9315">Training continues</text><polygon fill="#FAEEDA" points="584.8881,801.6562,595.1268,811.8949,584.8881,822.1335,574.6495,811.8949,584.8881,801.6562" style="stroke:#C8A000;stroke-width:1.0239;"/><rect fill="#EAF0FB" height="36.9285" rx="10.6653" ry="10.6653" style="stroke:#2E4057;stroke-width:1.0239;" width="124.3255" x="522.7254" y="839.198"/><text fill="#000000" font-family="Arial" font-size="8.5322" lengthAdjust="spacing" textLength="107.2611" x="531.2576" y="855.65">Generates output figures</text><text fill="#000000" font-family="Arial" font-size="8.5322" lengthAdjust="spacing" textLength="66.1039" x="531.2576" y="865.5821">and final report</text><ellipse cx="584.8881" cy="902.5764" fill="none" rx="9.3854" ry="9.3854" style="stroke:#222222;stroke-width:0.8532;"/><ellipse cx="584.8881" cy="902.5764" fill="#222222" rx="5.1193" ry="5.1193" style="stroke:#222222;stroke-width:0.8532;"/><line style="stroke:#000000;stroke-width:1.2798;" x1="443.0049" x2="443.0049" y1="44.5613" y2="911.9619"/><line style="stroke:#000000;stroke-width:1.2798;" x1="706.3444" x2="706.3444" y1="44.5613" y2="911.9619"/><line style="stroke:#2E4057;stroke-width:1.0239;" x1="71.0733" x2="71.0733" y1="76.8171" y2="93.8815"/><polygon fill="#2E4057" points="67.6604,85.3493,71.0733,93.8815,74.4862,85.3493,71.0733,88.7622" style="stroke:#2E4057;stroke-width:0.8532;"/><line style="stroke:#2E4057;stroke-width:1.0239;" x1="71.0733" x2="71.0733" y1="120.878" y2="137.9425"/><polygon fill="#2E4057" points="67.6604,129.4103,71.0733,137.9425,74.4862,129.4103,71.0733,132.8231" style="stroke:#2E4057;stroke-width:0.8532;"/><line style="stroke:#2E4057;stroke-width:1.0239;" x1="203.6769" x2="203.6769" y1="208.9999" y2="226.0644"/><polygon fill="#2E4057" points="200.264,217.5321,203.6769,226.0644,207.0897,217.5321,203.6769,220.945" style="stroke:#2E4057;stroke-width:0.8532;"/><line style="stroke:#2E4057;stroke-width:1.0239;" x1="203.6769" x2="203.6769" y1="449.1687" y2="466.2331"/><polygon fill="#2E4057" points="200.264,457.7009,203.6769,466.2331,207.0897,457.7009,203.6769,461.1138" style="stroke:#2E4057;stroke-width:0.8532;"/><line style="stroke:#2E4057;stroke-width:1.0239;" x1="203.6769" x2="203.6769" y1="493.2296" y2="510.2941"/><polygon fill="#2E4057" points="200.264,501.7619,203.6769,510.2941,207.0897,501.7619,203.6769,505.1747" style="stroke:#2E4057;stroke-width:0.8532;"/><line style="stroke:#2E4057;stroke-width:1.0239;" x1="363.4915" x2="363.4915" y1="307.0538" y2="324.1183"/><polygon fill="#2E4057" points="360.0786,315.5861,363.4915,324.1183,366.9044,315.5861,363.4915,318.9989" style="stroke:#2E4057;stroke-width:0.8532;"/><line style="stroke:#2E4057;stroke-width:1.0239;" x1="363.4915" x2="363.4915" y1="361.0468" y2="378.1113"/><polygon fill="#2E4057" points="360.0786,369.579,363.4915,378.1113,366.9044,369.579,363.4915,372.9919" style="stroke:#2E4057;stroke-width:0.8532;"/><line style="stroke:#2E4057;stroke-width:1.0239;" x1="363.4915" x2="363.4915" y1="591.2835" y2="608.348"/><polygon fill="#2E4057" points="360.0786,599.8158,363.4915,608.348,366.9044,599.8158,363.4915,603.2287" style="stroke:#2E4057;stroke-width:0.8532;"/><line style="stroke:#2E4057;stroke-width:1.0239;" x1="514.9656" x2="514.9656" y1="752.4759" y2="769.5404"/><polygon fill="#2E4057" points="511.5527,761.0082,514.9656,769.5404,518.3784,761.0082,514.9656,764.421" style="stroke:#2E4057;stroke-width:0.8532;"/><line style="stroke:#2E4057;stroke-width:1.0239;" x1="523.4978" x2="514.9656" y1="706.7085" y2="706.7085"/><line style="stroke:#2E4057;stroke-width:1.0239;" x1="514.9656" x2="514.9656" y1="706.7085" y2="725.4794"/><polygon fill="#2E4057" points="511.5527,716.9472,514.9656,725.4794,518.3784,716.9472,514.9656,720.3601" style="stroke:#2E4057;stroke-width:0.8532;"/><line style="stroke:#2E4057;stroke-width:1.0239;" x1="646.2785" x2="654.8107" y1="706.7085" y2="706.7085"/><line style="stroke:#2E4057;stroke-width:1.0239;" x1="654.8107" x2="654.8107" y1="706.7085" y2="725.4794"/><polygon fill="#2E4057" points="651.3978,716.9472,654.8107,725.4794,658.2236,716.9472,654.8107,720.3601" style="stroke:#2E4057;stroke-width:0.8532;"/><line style="stroke:#2E4057;stroke-width:1.0239;" x1="514.9656" x2="514.9656" y1="796.5369" y2="811.8949"/><line style="stroke:#2E4057;stroke-width:1.0239;" x1="514.9656" x2="574.6495" y1="811.8949" y2="811.8949"/><polygon fill="#2E4057" points="566.1172,808.482,574.6495,811.8949,566.1172,815.3078,569.5301,811.8949" style="stroke:#2E4057;stroke-width:0.8532;"/><line style="stroke:#2E4057;stroke-width:1.0239;" x1="654.8107" x2="654.8107" y1="752.4759" y2="811.8949"/><line style="stroke:#2E4057;stroke-width:1.0239;" x1="654.8107" x2="595.1268" y1="811.8949" y2="811.8949"/><polygon fill="#2E4057" points="603.659,808.482,595.1268,811.8949,603.659,815.3078,600.2461,811.8949" style="stroke:#2E4057;stroke-width:0.8532;"/><line style="stroke:#2E4057;stroke-width:1.0239;" x1="584.8881" x2="584.8881" y1="679.4054" y2="696.4699"/><polygon fill="#2E4057" points="581.4752,687.9377,584.8881,696.4699,588.301,687.9377,584.8881,691.3505" style="stroke:#2E4057;stroke-width:0.8532;"/><line style="stroke:#2E4057;stroke-width:1.0239;" x1="584.8881" x2="584.8881" y1="822.1335" y2="839.198"/><polygon fill="#2E4057" points="581.4752,830.6658,584.8881,839.198,588.301,830.6658,584.8881,834.0787" style="stroke:#2E4057;stroke-width:0.8532;"/><line style="stroke:#2E4057;stroke-width:1.0239;" x1="584.8881" x2="584.8881" y1="876.1265" y2="893.191"/><polygon fill="#2E4057" points="581.4752,884.6587,584.8881,893.191,588.301,884.6587,584.8881,888.0716" style="stroke:#2E4057;stroke-width:0.8532;"/><line style="stroke:#2E4057;stroke-width:1.0239;" x1="71.0733" x2="71.0733" y1="164.939" y2="169.2051"/><line style="stroke:#2E4057;stroke-width:1.0239;" x1="71.0733" x2="203.6769" y1="169.2051" y2="169.2051"/><line style="stroke:#2E4057;stroke-width:1.0239;" x1="203.6769" x2="203.6769" y1="169.2051" y2="182.0034"/><polygon fill="#2E4057" points="200.264,173.4712,203.6769,182.0034,207.0897,173.4712,203.6769,176.8841" style="stroke:#2E4057;stroke-width:0.8532;"/><line style="stroke:#2E4057;stroke-width:1.0239;" x1="203.6769" x2="203.6769" y1="262.9929" y2="267.259"/><line style="stroke:#2E4057;stroke-width:1.0239;" x1="203.6769" x2="363.4915" y1="267.259" y2="267.259"/><line style="stroke:#2E4057;stroke-width:1.0239;" x1="363.4915" x2="363.4915" y1="267.259" y2="280.0573"/><polygon fill="#2E4057" points="360.0786,271.5251,363.4915,280.0573,366.9044,271.5251,363.4915,274.938" style="stroke:#2E4057;stroke-width:0.8532;"/><line style="stroke:#2E4057;stroke-width:1.0239;" x1="363.4915" x2="363.4915" y1="405.1078" y2="409.3739"/><line style="stroke:#2E4057;stroke-width:1.0239;" x1="363.4915" x2="203.6769" y1="409.3739" y2="409.3739"/><line style="stroke:#2E4057;stroke-width:1.0239;" x1="203.6769" x2="203.6769" y1="409.3739" y2="422.1722"/><polygon fill="#2E4057" points="200.264,413.64,203.6769,422.1722,207.0897,413.64,203.6769,417.0529" style="stroke:#2E4057;stroke-width:0.8532;"/><line style="stroke:#2E4057;stroke-width:1.0239;" x1="203.6769" x2="203.6769" y1="537.2906" y2="541.5567"/><line style="stroke:#2E4057;stroke-width:1.0239;" x1="203.6769" x2="363.4915" y1="541.5567" y2="541.5567"/><line style="stroke:#2E4057;stroke-width:1.0239;" x1="363.4915" x2="363.4915" y1="541.5567" y2="554.355"/><polygon fill="#2E4057" points="360.0786,545.8228,363.4915,554.355,366.9044,545.8228,363.4915,549.2357" style="stroke:#2E4057;stroke-width:0.8532;"/><line style="stroke:#2E4057;stroke-width:1.0239;" x1="363.4915" x2="363.4915" y1="635.3445" y2="639.6106"/><line style="stroke:#2E4057;stroke-width:1.0239;" x1="363.4915" x2="584.8881" y1="639.6106" y2="639.6106"/><line style="stroke:#2E4057;stroke-width:1.0239;" x1="584.8881" x2="584.8881" y1="639.6106" y2="652.4089"/><polygon fill="#2E4057" points="581.4752,643.8767,584.8881,652.4089,588.301,643.8767,584.8881,647.2896" style="stroke:#2E4057;stroke-width:0.8532;"/><text fill="#000000" font-family="Arial" font-size="9.3854" lengthAdjust="spacing" textLength="48.5037" x="45.9682" y="53.2731">Passenger</text><text fill="#000000" font-family="Arial" font-size="9.3854" lengthAdjust="spacing" textLength="60.1347" x="172.7563" y="53.2731">Environment</text><text fill="#000000" font-family="Arial" font-size="9.3854" lengthAdjust="spacing" textLength="69.6622" x="327.8072" y="53.2731">Elevator Agent</text><text fill="#000000" font-family="Arial" font-size="9.3854" lengthAdjust="spacing" textLength="64.1446" x="542.6024" y="53.2731">Administrator</text><?plantuml-src XLJ1Sjem4BtxAtQc5t98QvAcfCcXOy3kTAPDII3J2nSXhM47Mt8bsJGT3ls8Vc6_f6iN0aaCXGE3zktRzvxMTalIXR0YXvcGoxarfLO3anaBhvBc4xX7XC9Kb9bFZFOt8aU8B8cilJwcdmZTxbxHBOGoAz9pI4NcSB-j8EY6OU2ao11wOGWhKduHx44YwQaY_z0tLg7Tw3kBtuONlOEeoOBaKgDpq7rzrePwxZUEaZ3fjo1tXiAMwf14RhHwGPT4SJoCZZJiUnbSHc5uXFs016lDwc0QTV5G22DXFNao-bcYlOl-kyEm_xEz2E4zV_jjqFOjULhs3xmGCvEfFSI4V8QxvlFMqgunyFKXVE6zfDCumqfurZMO36Fuy-ltOyp0ES-P8mZMzHxqucJDMfn3FKSBwy1v5XPSSQPKeGFX8SsCiTV1rSXo7dp4ovl1hFJUwEiD2s_J6c9TaJKwH-sPv-eE9KVfO573cnxIyBt44fdh8sgqmZERcJcqh9MJcEgK5QEG2y2jVZ5dkcPCShuPior5yzqaRCGo5tGKvT2zFE4XOsQHdZt8cXqg4bDzUtSwlBsfZvX1eryPksHe_0DbMSkv7y4R67xzTiC_duQVusCEnooSMufjUa_I6fYyQ1WLvv0Nng42YojX5HVl2zMORxBPP7BKufZ_CTvReLspDHpcL8_YExw8DCLwuCGAqcxZJ6W5qZ9IRaswVnEQHtKDaSf9asE-6jraM16kcWbSu7TNZjwIv2vAeJD2orUJ2oqHA2-igL1zE06_G0sT1tGd0K3ZsB0w1CStZy0Uif9jic6kzj5va0kKoy8GctAYgYl8RqZeQDCmJBR39QyswH9vF6f5wPE5AJq72odDIuvagckhAMcHSRo5iRmipflYBm00?></g></svg>