<svg xmlns="http://www.w3.org/2000/svg" xmlns:xlink="http://www.w3.org/1999/xlink" contentStyleType="text/css" data-diagram-type="DESCRIPTION" height="3421.9147px" preserveAspectRatio="none" style="width:2346px;height:3421px;background:#FFFFFF;" version="1.1" viewBox="0 0 2346 3421" width="2346.0647px" zoomAndPan="magnify"><?plantuml 1.2026.3beta6?><defs/><g><g class="title" data-source-line="19"><text fill="#000000" font-family="Arial" font-size="32.8504" font-weight="700" lengthAdjust="spacing" textLength="1129.0233" x="599.1507" y="57.8678">QR-DQN Multi-Elevator Group Control &#8212; System Architecture</text></g><!--cluster User & Sensor Layer  (Traffic Generation)--><g class="cluster" data-qualified-name="User . Sensor Layer  .Traffic Generation." data-source-line="21" id="ent0002"><path d="M94.4448,112.1533 L737.9626,112.1533 A10.2657,10.2657 0 0 1 744.8065,118.9971 L763.9692,160.445 L1019.7306,160.445 A6.8438,6.8438 0 0 1 1026.5744,167.2889 L1026.5744,381.5811 A6.8438,6.8438 0 0 1 1019.7306,388.425 L94.4448,388.425 A6.8438,6.8438 0 0 1 87.601,381.5811 L87.601,118.9971 A6.8438,6.8438 0 0 1 94.4448,112.1533" fill="#EAF7EF" style="stroke:#000000;stroke-width:4.1063;"/><line style="stroke:#000000;stroke-width:4.1063;" x1="87.601" x2="763.9692" y1="160.445" y2="160.445"/><text fill="#000000" font-family="Arial" font-size="27.3753" font-weight="700" lengthAdjust="spacing" textLength="640.7803" x="98.5511" y="143.0387">User &amp; Sensor Layer  (Traffic Generation)</text></g><!--cluster Control & Scheduling Layer  (Simulation Env ? 10 floors ? 3 elevators)--><g class="cluster" data-qualified-name="Control . Scheduling Layer  .Simulation Env . 10 floors . 3 elevators." data-source-line="26" id="ent0005"><path d="M67.0695,508.8764 L1152.9099,508.8764 A10.2657,10.2657 0 0 1 1159.7537,515.7202 L1178.9164,557.1681 L1178.5074,557.1681 A6.8438,6.8438 0 0 1 1185.3512,564.012 L1185.3512,1377.6047 A6.8438,6.8438 0 0 1 1178.5074,1384.4485 L67.0695,1384.4485 A6.8438,6.8438 0 0 1 60.2257,1377.6047 L60.2257,515.7202 A6.8438,6.8438 0 0 1 67.0695,508.8764" fill="#EAF0FB" style="stroke:#000000;stroke-width:4.1063;"/><line style="stroke:#000000;stroke-width:4.1063;" x1="60.2257" x2="1178.9164" y1="557.1681" y2="557.1681"/><text fill="#000000" font-family="Arial" font-size="27.3753" font-weight="700" lengthAdjust="spacing" textLength="1083.1028" x="71.1758" y="539.7618">Control &amp; Scheduling Layer  (Simulation Env &#8212; 10 floors &#183; 3 elevators)</text></g><!--cluster Learning & Decision Layer--><g class="cluster" data-qualified-name="Learning . Decision Layer" data-source-line="32" id="ent0009"><path d="M23.269,1504.8999 L431.1158,1504.8999 A10.2657,10.2657 0 0 1 437.9596,1511.7437 L457.1224,1553.1917 L1684.9508,1553.1917 A6.8438,6.8438 0 0 1 1691.7946,1560.0355 L1691.7946,2694.4943 A6.8438,6.8438 0 0 1 1684.9508,2701.3382 L23.269,2701.3382 A6.8438,6.8438 0 0 1 16.4252,2694.4943 L16.4252,1511.7437 A6.8438,6.8438 0 0 1 23.269,1504.8999" fill="#F3F0FB" style="stroke:#000000;stroke-width:4.1063;"/><line style="stroke:#000000;stroke-width:4.1063;" x1="16.4252" x2="457.1224" y1="1553.1917" y2="1553.1917"/><text fill="#000000" font-family="Arial" font-size="27.3753" font-weight="700" lengthAdjust="spacing" textLength="405.1093" x="27.3753" y="1535.7854">Learning &amp; Decision Layer</text></g><!--cluster Shared QR-DQN Agent  (CTDE)--><g class="cluster" data-qualified-name="Learning . Decision Layer.Shared QR-DQN Agent  .CTDE." data-source-line="33" id="ent0010"><path d="M88.9698,1608.9261 L560.924,1608.9261 A10.2657,10.2657 0 0 1 567.7678,1615.7699 L586.9306,1657.2179 L1006.0429,1657.2179 A6.8438,6.8438 0 0 1 1012.8867,1664.0617 L1012.8867,2628.7936 A6.8438,6.8438 0 0 1 1006.0429,2635.6374 L88.9698,2635.6374 A6.8438,6.8438 0 0 1 82.126,2628.7936 L82.126,1615.7699 A6.8438,6.8438 0 0 1 88.9698,1608.9261" fill="#E8E4F8" style="stroke:#000000;stroke-width:4.1063;"/><line style="stroke:#000000;stroke-width:4.1063;" x1="82.126" x2="586.9306" y1="1657.2179" y2="1657.2179"/><text fill="#000000" font-family="Arial" font-size="27.3753" font-weight="700" lengthAdjust="spacing" textLength="469.2167" x="93.0761" y="1639.8116">Shared QR-DQN Agent  (CTDE)</text></g><!--cluster Classical Baselines--><g class="cluster" data-qualified-name="Learning . Decision Layer.Classical Baselines" data-source-line="38" id="ent0014"><path d="M1085.4313,1608.9261 L1379.0183,1608.9261 A10.2657,10.2657 0 0 1 1385.8621,1615.7699 L1405.0248,1657.2179 L1619.25,1657.2179 A6.8438,6.8438 0 0 1 1626.0939,1664.0617 L1626.0939,1846.4891 A6.8438,6.8438 0 0 1 1619.25,1853.3329 L1085.4313,1853.3329 A6.8438,6.8438 0 0 1 1078.5875,1846.4891 L1078.5875,1615.7699 A6.8438,6.8438 0 0 1 1085.4313,1608.9261" fill="#FAE8E4" style="stroke:#000000;stroke-width:4.1063;"/><line style="stroke:#000000;stroke-width:4.1063;" x1="1078.5875" x2="1405.0248" y1="1657.2179" y2="1657.2179"/><text fill="#000000" font-family="Arial" font-size="27.3753" font-weight="700" lengthAdjust="spacing" textLength="290.8494" x="1089.5376" y="1639.8116">Classical Baselines</text></g><!--cluster Evaluation & Reporting Layer--><g class="cluster" data-qualified-name="Evaluation . Reporting Layer" data-source-line="43" id="ent0016"><path d="M636.4761,2821.7896 L1093.7402,2821.7896 A10.2657,10.2657 0 0 1 1100.584,2828.6334 L1119.7467,2870.0813 L1427.6228,2870.0813 A6.8438,6.8438 0 0 1 1434.4666,2876.9252 L1434.4666,3374.9352 A6.8438,6.8438 0 0 1 1427.6228,3381.7791 L636.4761,3381.7791 A6.8438,6.8438 0 0 1 629.6323,3374.9352 L629.6323,2828.6334 A6.8438,6.8438 0 0 1 636.4761,2821.7896" fill="#FAEEDA" style="stroke:#000000;stroke-width:4.1063;"/><line style="stroke:#000000;stroke-width:4.1063;" x1="629.6323" x2="1119.7467" y1="2870.0813" y2="2870.0813"/><text fill="#000000" font-family="Arial" font-size="27.3753" font-weight="700" lengthAdjust="spacing" textLength="454.5265" x="640.5824" y="2852.675">Evaluation &amp; Reporting Layer</text></g><!--entity TRAFFIC--><g class="entity" data-qualified-name="User . Sensor Layer  .Traffic Generation..TRAFFIC" data-source-line="22" id="ent0003"><rect fill="#C8EDD8" height="150.3504" rx="6.8438" ry="6.8438" style="stroke:#181818;stroke-width:3.285;" width="390.2186" x="130.6624" y="194.2792"/><text fill="#000000" font-family="Arial" font-size="27.3753" font-weight="700" lengthAdjust="spacing" textLength="248.2359" x="158.0377" y="247.0649">Poisson Arrivals</text><text fill="#000000" font-family="Arial" font-size="27.3753" lengthAdjust="spacing" textLength="335.4679" x="158.0377" y="278.9315">&#955; &#8712; [0.12-0.35] per floor</text><text fill="#000000" font-family="Arial" font-size="27.3753" lengthAdjust="spacing" textLength="327.6617" x="158.0377" y="310.7981">Lobby &#215;5.0  &#183;  Top &#215;1.5</text></g><!--entity MODES--><g class="entity" data-qualified-name="User . Sensor Layer  .Traffic Generation..MODES" data-source-line="23" id="ent0004"><rect fill="#C8EDD8" height="150.3504" rx="6.8438" ry="6.8438" style="stroke:#181818;stroke-width:3.285;" width="365.6236" x="616.5469" y="194.2792"/><text fill="#000000" font-family="Arial" font-size="27.3753" font-weight="700" lengthAdjust="spacing" textLength="210.1136" x="643.9222" y="247.0649">Traffic Modes</text><text fill="#000000" font-family="Arial" font-size="27.3753" lengthAdjust="spacing" textLength="256.3094" x="643.9222" y="278.9315">Normal  &#183;  Up-Peak</text><text fill="#000000" font-family="Arial" font-size="27.3753" lengthAdjust="spacing" textLength="310.8729" x="643.9222" y="310.7981">Down-Peak  &#183;  Random</text></g><!--entity ENV--><g class="entity" data-qualified-name="Control . Scheduling Layer  .Simulation Env . 10 floors . 3 elevators..ENV" data-source-line="27" id="ent0006"><rect fill="#BDD5F5" height="118.4838" rx="6.8438" ry="6.8438" style="stroke:#181818;stroke-width:3.285;" width="714.2044" x="264.3087" y="591.0023"/><text fill="#000000" font-family="Arial" font-size="27.3753" font-weight="700" lengthAdjust="spacing" textLength="384.1233" x="291.684" y="643.788">Hall Queue &amp; Auto-Serve</text><text fill="#000000" font-family="Arial" font-size="27.3753" lengthAdjust="spacing" textLength="659.4538" x="291.684" y="675.6546">hall[f] pending calls &#183; step: serve&#8594;move&#8594;spawn</text></g><!--entity EMA--><g class="entity" data-qualified-name="Control . Scheduling Layer  .Simulation Env . 10 floors . 3 elevators..EMA" data-source-line="28" id="ent0007"><rect fill="#BDD5F5" height="118.4838" rx="6.8438" ry="6.8438" style="stroke:#181818;stroke-width:3.285;" width="678.956" x="103.9988" y="906.585"/><text fill="#000000" font-family="Arial" font-size="27.3753" font-weight="700" lengthAdjust="spacing" textLength="397.3832" x="131.3741" y="959.3707">EMA Responsibility Zones</text><text fill="#000000" font-family="Arial" font-size="27.3753" lengthAdjust="spacing" textLength="624.2054" x="131.3741" y="991.2373">Nearest-elevator assignment &#183; respEMA norm</text></g><!--entity REWARD--><g class="entity" data-qualified-name="Control . Scheduling Layer  .Simulation Env . 10 floors . 3 elevators..REWARD" data-source-line="29" id="ent0008"><rect fill="#BDD5F5" height="118.4838" rx="6.8438" ry="6.8438" style="stroke:#181818;stroke-width:3.285;" width="802.1316" x="146.4306" y="1222.1676"/><text fill="#000000" font-family="Arial" font-size="27.3753" font-weight="700" lengthAdjust="spacing" textLength="438.4997" x="173.8059" y="1274.9533">Decomposed Reward Engine</text><text fill="#000000" font-family="Arial" font-size="27.3753" lengthAdjust="spacing" textLength="747.3809" x="173.8059" y="1306.8199">+8 serve  &#8722;3 resp  &#8722;0.5 move  +0.3 idle  &#8722;2.5 cluster</text></g><!--entity NSTEP--><g class="entity" data-qualified-name="Learning . Decision Layer.Shared QR-DQN Agent  .CTDE..NSTEP" data-source-line="34" id="ent0011"><rect fill="#D0C8F0" height="118.4838" rx="6.8438" ry="6.8438" style="stroke:#181818;stroke-width:3.285;" width="419.639" x="337.6745" y="1691.0521"/><text fill="#000000" font-family="Arial" font-size="27.3753" font-weight="700" lengthAdjust="spacing" textLength="325.7502" x="365.0499" y="1743.8378">N-Step Return Buffer</text><text fill="#000000" font-family="Arial" font-size="27.3753" lengthAdjust="spacing" textLength="364.8884" x="365.0499" y="1775.7044">&#947;=0.99 &#183; bootstrap targets</text></g><!--entity PER--><g class="entity" data-qualified-name="Learning . Decision Layer.Shared QR-DQN Agent  .CTDE..PER" data-source-line="35" id="ent0012"><rect fill="#D0C8F0" height="118.4838" rx="6.8438" ry="6.8438" style="stroke:#181818;stroke-width:3.285;" width="488.4382" x="303.2911" y="2012.1098"/><text fill="#000000" font-family="Arial" font-size="27.3753" font-weight="700" lengthAdjust="spacing" textLength="381.8108" x="330.6665" y="2064.8955">Prioritised Replay Buffer</text><text fill="#000000" font-family="Arial" font-size="27.3753" lengthAdjust="spacing" textLength="433.6876" x="330.6665" y="2096.7621">Cap 200k &#183; &#945;=0.6 &#183; IS weights &#946;</text></g><!--entity NET--><g class="entity" data-qualified-name="Learning . Decision Layer.Shared QR-DQN Agent  .CTDE..NET" data-source-line="36" id="ent0013"><rect fill="#D0C8F0" height="214.0835" rx="6.8438" ry="6.8438" style="stroke:#181818;stroke-width:3.285;" width="843.2747" x="125.8717" y="2377.7345"/><text fill="#000000" font-family="Arial" font-size="27.3753" font-weight="700" lengthAdjust="spacing" textLength="266.6821" x="153.247" y="2430.5202">QR-Dueling Actor</text><text fill="#000000" font-family="Arial" font-size="27.3753" lengthAdjust="spacing" textLength="188.5395" x="437.3328" y="2430.5202">[per elevator]</text><text fill="#000000" font-family="Arial" font-size="27.3753" lengthAdjust="spacing" textLength="756.4035" x="153.247" y="2462.3868">obs_dim=18 &#183; hidden=256 &#183; N=51 quantiles &#183; 3 actions</text><text fill="#000000" font-family="Arial" font-size="27.3753" lengthAdjust="spacing" textLength="788.5241" x="153.247" y="2494.2534">Value stream + Advantage stream &#183; Soft update &#964;=0.002</text><text fill="#000000" font-family="Arial" font-size="27.3753" font-weight="700" lengthAdjust="spacing" textLength="267.6312" x="153.247" y="2526.12">Centralised Critic</text><text fill="#000000" font-family="Arial" font-size="27.3753" lengthAdjust="spacing" textLength="194.0199" x="438.2818" y="2526.12">[training only]</text><text fill="#000000" font-family="Arial" font-size="27.3753" lengthAdjust="spacing" textLength="354.0345" x="153.247" y="2557.9866">joint_dim=16 &#183; scalar V(s)</text></g><!--entity BASE--><g class="entity" data-qualified-name="Learning . Decision Layer.Classical Baselines.BASE" data-source-line="39" id="ent0015"><rect fill="#F5C8C0" height="118.4838" rx="6.8438" ry="6.8438" style="stroke:#181818;stroke-width:3.285;" width="462.1857" x="1121.2383" y="1691.0521"/><text fill="#000000" font-family="Arial" font-size="27.3753" font-weight="700" lengthAdjust="spacing" textLength="184.8235" x="1148.6136" y="1743.8378">Nearest-Car</text><text fill="#000000" font-family="Arial" font-size="27.3753" lengthAdjust="spacing" textLength="8.7018" x="1350.8407" y="1743.8378">&#183;</text><text fill="#000000" font-family="Arial" font-size="27.3753" font-weight="700" lengthAdjust="spacing" textLength="179.1025" x="1376.9462" y="1743.8378">SCAN/LOOK</text><text fill="#000000" font-family="Arial" font-size="27.3753" font-weight="700" lengthAdjust="spacing" textLength="205.1946" x="1148.6136" y="1775.7044">ETA-Dispatch</text><text fill="#000000" font-family="Arial" font-size="27.3753" lengthAdjust="spacing" textLength="8.7018" x="1371.2118" y="1775.7044">&#183;</text><text fill="#000000" font-family="Arial" font-size="27.3753" font-weight="700" lengthAdjust="spacing" textLength="148.3721" x="1397.3173" y="1775.7044">Sectoring</text></g><!--entity EVAL--><g class="entity" data-qualified-name="Evaluation . Reporting Layer.EVAL" data-source-line="44" id="ent0017"><rect fill="#F5DBA0" height="118.4838" rx="6.8438" ry="6.8438" style="stroke:#181818;stroke-width:3.285;" width="680.1055" x="691.9933" y="2903.9155"/><text fill="#000000" font-family="Arial" font-size="27.3753" font-weight="700" lengthAdjust="spacing" textLength="364.4072" x="719.3686" y="2956.7012">30-Episode Greedy Eval</text><text fill="#000000" font-family="Arial" font-size="27.3753" lengthAdjust="spacing" textLength="625.3549" x="719.3686" y="2988.5678">&#949;=0 &#183; 300 steps &#183; composite score checkpoint</text></g><!--entity OUT--><g class="entity" data-qualified-name="Evaluation . Reporting Layer.OUT" data-source-line="45" id="ent0018"><rect fill="#F5DBA0" height="118.4838" rx="6.8438" ry="6.8438" style="stroke:#181818;stroke-width:3.285;" width="719.4308" x="672.3378" y="3219.4982"/><text fill="#000000" font-family="Arial" font-size="27.3753" font-weight="700" lengthAdjust="spacing" textLength="272.764" x="699.7131" y="3272.2839">Metrics &amp; Figures</text><text fill="#000000" font-family="Arial" font-size="27.3753" lengthAdjust="spacing" textLength="664.6802" x="699.7131" y="3304.1505">wait &#183; energy &#183; served &#183; cluster% &#183; spread &#183; 9 figs</text></g><g class="entity" data-qualified-name="GMN19" data-source-line="49" id="ent0020"><path d="M1735.1571,2327.6925 L1735.1571,2473.8493 L970.3455,2484.7994 L1735.1571,2495.7495 L1735.1571,2641.867 A0,0 0 0 0 1735.1571,2641.867 L2305.4246,2641.867 A0,0 0 0 0 2305.4246,2641.867 L2305.4246,2355.0678 L2278.0492,2327.6925 L1735.1571,2327.6925 A0,0 0 0 0 1735.1571,2327.6925" fill="#FEFFDD" style="stroke:#181818;stroke-width:1.3688;"/><path d="M2278.0492,2327.6925 L2278.0492,2355.0678 L2305.4246,2355.0678 L2278.0492,2327.6925" fill="#FEFFDD" style="stroke:#181818;stroke-width:1.3688;"/><text fill="#000000" font-family="Arial" font-size="27.3753" font-weight="700" lengthAdjust="spacing" textLength="512.7793" x="1751.5823" y="2366.7905">obs vector per elevator &#8212; dim 18</text><text fill="#000000" font-family="Arial" font-size="27.3753" lengthAdjust="spacing" textLength="272.7908" x="1751.5823" y="2398.6571">1   own floor (norm)</text><text fill="#000000" font-family="Arial" font-size="27.3753" lengthAdjust="spacing" textLength="414.7601" x="1751.5823" y="2430.5237">10  hall queue (norm, clipped)</text><text fill="#000000" font-family="Arial" font-size="27.3753" lengthAdjust="spacing" textLength="237.2349" x="1751.5823" y="2462.3902">2   peer positions</text><text fill="#000000" font-family="Arial" font-size="27.3753" lengthAdjust="spacing" textLength="212.5196" x="1751.5823" y="2494.2568">2   peer targets</text><text fill="#000000" font-family="Arial" font-size="27.3753" lengthAdjust="spacing" textLength="308.7342" x="1751.5823" y="2526.1234">3   one-hot elevator ID</text><text fill="#000000" font-family="Arial" font-size="27.3753" lengthAdjust="spacing" textLength="296.664" x="1751.5823" y="2557.99">&#9472;&#9472;&#9472;&#9472;&#9472;&#9472;&#9472;&#9472;&#9472;&#9472;&#9472;&#9472;&#9472;&#9472;&#9472;&#9472;&#9472;&#9472;</text><text fill="#000000" font-family="Arial" font-size="27.3753" font-weight="700" lengthAdjust="spacing" textLength="423.1144" x="1751.5823" y="2589.8566">joint state (critic) &#8212; dim 16</text><text fill="#000000" font-family="Arial" font-size="27.3753" lengthAdjust="spacing" textLength="372.16" x="1751.5823" y="2621.7231">3 pos + 10 hall + 3 targets</text></g><!--link TRAFFIC to ENV--><g class="link" data-entity-1="ent0003" data-entity-2="ent0006" data-link-type="dependency" data-source-line="60" id="lnk22"><path d="M383.4734,345.4457 C439.9487,417.1143 514.5923,511.907 566.2495,577.4709" fill="none" id="TRAFFIC-to-ENV" style="stroke:#2E4057;stroke-width:3.285;"/><polygon fill="#2E4057" points="576.4147,590.3727,569.7681,564.2432,567.9437,579.6212,552.5657,577.7968,576.4147,590.3727" style="stroke:#2E4057;stroke-width:3.285;"/><text fill="#000000" font-family="Arial" font-size="24.6378" lengthAdjust="spacing" textLength="116.7648" x="476.3305" y="457.8323">calls/step</text></g><!--link MODES to ENV--><g class="link" data-entity-1="ent0004" data-entity-2="ent0006" data-link-type="dependency" data-source-line="61" id="lnk23"><path d="M764.62,345.4457 C730.6472,417.1143 686.6314,509.9684 655.533,575.5323" fill="none" id="MODES-to-ENV" style="stroke:#2E4057;stroke-width:3.285;"/><polygon fill="#2E4057" points="648.4939,590.3727,668.9462,572.8048,654.3598,578.0057,649.159,563.4193,648.4939,590.3727" style="stroke:#2E4057;stroke-width:3.285;"/><text fill="#000000" font-family="Arial" font-size="24.6378" lengthAdjust="spacing" textLength="174.5217" x="722.7084" y="457.8323">mode/episode</text></g><!--link ENV to EMA--><g class="link" data-entity-1="ent0006" data-entity-2="ent0007" data-link-type="dependency" data-source-line="62" id="lnk24"><path d="M588.3777,710.5777 C556.4033,766.2865 516.4227,835.9442 484.5305,891.5434" fill="none" id="ENV-to-EMA" style="stroke:#2E4057;stroke-width:3.285;"/><polygon fill="#2E4057" points="476.3579,905.7911,498.1152,889.868,483.1684,893.918,479.1183,878.9712,476.3579,905.7911" style="stroke:#2E4057;stroke-width:3.285;"/><text fill="#000000" font-family="Arial" font-size="24.6378" lengthAdjust="spacing" textLength="111.4475" x="539.2938" y="817.2155">pos &#183; hall</text></g><!--link ENV to REWARD--><g class="link" data-entity-1="ent0006" data-entity-2="ent0008" data-link-type="dependency" data-source-line="63" id="lnk25"><path d="M692.8967,710.4956 C772.6683,782.1094 884.168,909.213 832.2097,1025.0653 C794.4317,1109.3266 726.9395,1167.9146 660.9103,1212.1258" fill="none" id="ENV-to-REWARD" style="stroke:#2E4057;stroke-width:3.285;"/><polygon fill="#2E4057" points="647.262,1221.2642,673.8267,1216.6554,658.6356,1213.6489,661.6421,1198.4577,647.262,1221.2642" style="stroke:#2E4057;stroke-width:3.285;"/><text fill="#000000" font-family="Arial" font-size="24.6378" lengthAdjust="spacing" textLength="160.1697" x="845.8973" y="975.0068">serve &#183; move</text></g><!--link EMA to REWARD--><g class="link" data-entity-1="ent0007" data-entity-2="ent0008" data-link-type="dependency" data-source-line="64" id="lnk26"><path d="M462.8071,1026.1604 C481.4771,1081.8691 504.4246,1150.2014 523.0672,1205.8007" fill="none" id="EMA-to-REWARD" style="stroke:#2E4057;stroke-width:3.285;"/><polygon fill="#2E4057" points="528.2889,1221.3737,530.8384,1194.533,523.9375,1208.3962,510.0743,1201.4953,528.2889,1221.3737" style="stroke:#2E4057;stroke-width:3.285;"/><text fill="#000000" font-family="Arial" font-size="24.6378" lengthAdjust="spacing" textLength="156.9696" x="500.9683" y="1132.7982">resp_norm[i]</text></g><!--link REWARD to NSTEP--><g class="link" data-entity-1="ent0008" data-entity-2="ent0011" data-link-type="dependency" data-source-line="65" id="lnk27"><path d="M547.5064,1341.9073 C547.5064,1430.9318 547.5064,1584.3431 547.5064,1673.3676" fill="none" id="REWARD-to-NSTEP" style="stroke:#2E4057;stroke-width:3.285;"/><polygon fill="#2E4057" points="547.5064,1689.7928,558.4565,1665.155,547.5064,1676.1051,536.5562,1665.155,547.5064,1689.7928" style="stroke:#2E4057;stroke-width:3.285;"/><text fill="#000000" font-family="Arial" font-size="24.6378" lengthAdjust="spacing" textLength="189.6316" x="550.2439" y="1453.8559">r_i &#8712;[&#8722;20,+20]</text></g><!--link NSTEP to PER--><g class="link" data-entity-1="ent0011" data-entity-2="ent0012" data-link-type="dependency" data-source-line="66" id="lnk28"><path d="M547.5064,1810.1894 C547.5064,1867.0206 547.5064,1937.3478 547.5064,1994.398" fill="none" id="NSTEP-to-PER" style="stroke:#2E4057;stroke-width:3.285;"/><polygon fill="#2E4057" points="547.5064,2010.8232,558.4565,1986.1854,547.5064,1997.1355,536.5562,1986.1854,547.5064,2010.8232" style="stroke:#2E4057;stroke-width:3.285;"/><text fill="#000000" font-family="Arial" font-size="24.6378" lengthAdjust="spacing" textLength="100.3918" x="550.2439" y="1922.7403">(s,a,r,s')</text></g><!--link PER to NET--><g class="link" data-entity-1="ent0012" data-entity-2="ent0013" data-link-type="dependency" data-source-line="67" id="lnk29"><path d="M547.5064,2131.6852 C547.5064,2195.1412 547.5064,2282.1673 547.5064,2360.2417" fill="none" id="PER-to-NET" style="stroke:#2E4057;stroke-width:3.285;"/><polygon fill="#2E4057" points="547.5064,2376.6669,558.4565,2352.0291,547.5064,2362.9792,536.5562,2352.0291,547.5064,2376.6669" style="stroke:#2E4057;stroke-width:3.285;"/><text fill="#000000" font-family="Arial" font-size="24.6378" lengthAdjust="spacing" textLength="168.0615" x="550.2439" y="2238.323">batch 256 &#183; w</text></g><!--link NET to EVAL--><g class="link" data-entity-1="ent0013" data-entity-2="ent0017" data-link-type="dependency" data-source-line="68" id="lnk30"><path d="M655.0366,2592.4665 C753.1771,2688.2528 882.8162,2814.7791 961.6024,2891.6764" fill="none" id="NET-to-EVAL" style="stroke:#2E4057;stroke-width:3.285;"/><polygon fill="#2E4057" points="973.3568,2903.149,963.3736,2878.1038,963.5614,2893.5885,948.0768,2893.7764,973.3568,2903.149" style="stroke:#2E4057;stroke-width:3.285;"/><text fill="#000000" font-family="Arial" font-size="24.6378" lengthAdjust="spacing" textLength="108.9693" x="834.9472" y="2770.7456">greedy &#960;</text></g><!--link BASE to EVAL--><g class="link" data-entity-1="ent0015" data-entity-2="ent0017" data-link-type="dependency" data-source-line="69" id="lnk31"><path d="M1337.12,1810.4632 C1283.1633,2013.8344 1105.6842,2682.8065 1051.5906,2886.7526" fill="none" id="BASE-to-EVAL" style="stroke:#2E4057;stroke-width:3.285;"/><polygon fill="#2E4057" points="1047.3796,2902.6289,1064.2802,2881.6218,1050.8888,2889.3987,1043.1119,2876.0072,1047.3796,2902.6289" style="stroke:#2E4057;stroke-width:3.285;"/><text fill="#000000" font-family="Arial" font-size="24.6378" lengthAdjust="spacing" textLength="139.0688" x="1229.1518" y="2238.323">benchmark</text></g><!--link EVAL to OUT--><g class="link" data-entity-1="ent0017" data-entity-2="ent0018" data-link-type="dependency" data-source-line="70" id="lnk32"><path d="M1032.0495,3023.4909 C1032.0495,3079.1997 1032.0495,3146.6798 1032.0495,3202.2791" fill="none" id="EVAL-to-OUT" style="stroke:#2E4057;stroke-width:3.285;"/><polygon fill="#2E4057" points="1032.0495,3218.7043,1042.9996,3194.0665,1032.0495,3205.0166,1021.0993,3194.0665,1032.0495,3218.7043" style="stroke:#2E4057;stroke-width:3.285;"/><text fill="#000000" font-family="Arial" font-size="24.6378" lengthAdjust="spacing" textLength="168.7833" x="1034.787" y="3130.1287">metrics &#183; ckpt</text></g><?plantuml-src dLPVJnj747-_Jp42DGM1uMpYn4GXqk4xfr714EnGgO2YzTtQtlgyUzrTOxbLf3nKLPwZIFqSRLNreM_jU_8T-2ITsJqx9ZXzA4BYRcPk_lpcDpEOaP05qsmCFPQE1bfDPDPKkTAmtd8_WLbOPBpF9hbjAMdRRCmXqeBbg_KTyGE7QhYaD4EMgQcG0-YptF3bpme1rJhQfYpdz1J2L6Hs62pPdF7KCZd8-Q7I6TVTeKX7aXi3rPtQAhFLEKHQgsbPNIsv7zOVVghyd6EdN3ZTNzAS8cnii2Al-bsZrLajA-qC8UYfF5lITuLTBgYsKlNnmy2I41xtdZm_gyJFst2CFH6L9EVNp6BbJx771JJn8wrok7dz3ZepOpdLc0w5HGGdcZ_UxJq9Wi9d1cil3DTm3pfS6lHmn6Ru2XjTpVfzaS9JBhbcLYYvkGRhITHwcBJWnm10pzi1QvZEgHB6A4bOYcla0CMubE__WfitR-0YtAdMAk7ENlqA2lJUpvNIb_98zNep-EUN-au8yFUV05rLu2kYkmRCGFSiQhMUDM6zsKZYk74dv3p3OvNnCbvRwJ7BlRCNHUMKiz6bZDLKkaSlFsCoKsCNuVWaJZeB_w-MC9aZYB2aGvvDSkBs79gE64zo1maayjgXN0rzKOP2x04l-s5ApCBMuGhClc9v3iydVC8nJZIngjBX-fhxKeQelEWJNZAZu3W_kVEExImUWI7Bcv_VZfNxOmesbQwcf7qEwuTnN6_LxmHCZYES8bCeQKHFvCBEu5ib5-1nfhcnbNdowCs8WHnpQIakwWfo815Z7mbVFXSfvgaQ5yhm30DEcSuGgO6GPMrR3Py_83lUxZdFxZ7SgGCL1B25P06HvTwaXl8qds3bsaK-Ixw9pk95yEN67M4Hal2w1vY3CDGarpTiH6jlqOY5VMU8HMTGJbCqe69XezcD4zUwHdA_rN1VV5fXkzB1Hc1rE54I3YVzFjSbwNy_27VszmcpdbBMMCqAi4mFk3Kk_NQdcvp2UXms6wrmXUjJBPGMLdZqYfpDRlblehjQ68uemFjVCTO3UdhMWIaNWw4ryFut5-OqEVkF85JnX3jUHobsctm3ND1upWbmTIbLpxpCnFYWsg0OGv5bN1xKwYvY-w1UXUydJ5gHyvBuBAMnC9VodEL8QwoTuoRRWYYxHZj2l1IXTKVrBKoAZ5aE7tx2EiAmTYanjIOsGRFSrTya8D8oEPGArrmbynbczvqIqlhyN4PqP9Y6ymsQEm8wwIuXy6gvxysSs8tsSCWCmS0DCIIYZg_kTpaTJLP2HRi4vPrcrDuzEZdvsZU7fgmRLMA14sdJuMrJJa1Z_YHr2Hv6dGIZrfkDfizmcSe9xj69NpFtY0TAsyKMyhacSRHYhUo5bQGG1hSYdWFEincGfvARVno4hbDuXscHkBRvKSNhW00gpG4tNZeg25i_v-VH4IKP7qRXdM37t6gH6iom9GPuMyfTCcN2BGqw7eEPwmqDVER2-Kd-maaBP8EJxaDV3FnydBpeBk8X859XPfge3QfFFGqScaXDk7Q8mZ9ftJf6Ia2ruUuSG1LxYIV0BsZOeFsrIM8yEhHaaSAqWPry6vCJHS4pCgZXTmL7rmuSelMoi1ne5EsHVyahGsK_Pl4iHitDkzV_uzUNvxYDFQBfs4ZT56n-hEr1MTiU9OVpXSMuMhPGCiyC3mSGTa4mlwILoXDt7m0U-NkoInm8_1c4M-enqcUNUne5NbWQuDOd0ufBAm7TtDBxtLmUABAWXHxuhsvRqDf_IQXVYAkWNEdEmEz7D7WfwD-72xe0uVPMBRmAlCgRqNwZJ3RCDjlMs-RBpS2BIYyu_AJkqHn2kREcWHUNjH2pqMJWn-J3wy0Dv2VQ7fVfSCpqAF0IhoMIEg3A0I1YZmhxBm00?></g></svg>